<?xml version="1.0" standalone="no"?>
<!DOCTYPE svg PUBLIC "-//W3C//DTD SVG 1.1//EN" "http://www.w3.org/Graphics/SVG/1.1/DTD/svg11.dtd" >
<svg xmlns="http://www.w3.org/2000/svg">
<metadata></metadata>
<defs>
<font id="GudeaItalic" horiz-adv-x="954" >
<font-face units-per-em="2048" ascent="1638" descent="-410" />
<missing-glyph horiz-adv-x="460" />
<glyph horiz-adv-x="0" />
<glyph horiz-adv-x="2048" />
<glyph horiz-adv-x="854" d="M76 561l710 684l-192 -1372z" />
<glyph unicode=" "  horiz-adv-x="460" />
<glyph unicode="&#x09;" horiz-adv-x="460" />
<glyph unicode="&#xa0;" horiz-adv-x="460" />
<glyph unicode="!" horiz-adv-x="491" d="M125 0l27 190h137l-27 -190h-137zM182 389l146 1047h137l-146 -1047h-137z" />
<glyph unicode="&#x22;" horiz-adv-x="696" d="M143 905l76 531h139l-75 -531h-140zM498 905l75 531h140l-76 -531h-139z" />
<glyph unicode="#" horiz-adv-x="1140" d="M59 391l19 133h225l100 428h-219l19 133h229l82 349h139l-82 -349h293l84 349h137l-77 -349h176l-19 -133h-192l-96 -428h180l-19 -133h-194l-90 -391h-140l93 391h-293l-92 -391h-142l92 391h-213zM442 524h293l103 428h-293z" />
<glyph unicode="$" horiz-adv-x="935" d="M84 162l57 102q15 -9 41.5 -21.5t101 -33.5t138.5 -21q114 0 199.5 71.5t85.5 193.5q0 53 -27 93.5t-70 67t-95.5 50t-105 50t-95.5 59t-70 84.5t-27 120q0 153 91 261t224 114l25 178h121l-25 -178q48 -5 104 -19t88 -25l32 -12l-43 -122l-48 18q-121 41 -215 41 t-151.5 -60t-57.5 -163q0 -51 26.5 -90t69.5 -65t94.5 -49t103 -49t94.5 -58t69.5 -82.5t26.5 -116.5q0 -109 -44.5 -203t-130.5 -156.5t-198 -74.5l-27 -189h-120q24 182 26 184q-143 10 -268 101z" />
<glyph unicode="%" horiz-adv-x="1357" d="M154 2l950 1407h143l-950 -1407h-143zM176 971q0 82 16 158.5t49.5 144.5t93.5 109.5t138 41.5q203 0 203 -249q0 -87 -16 -163.5t-50 -143t-95.5 -105.5t-143.5 -39q-99 0 -147 65.5t-48 180.5zM289 985q0 -158 100 -158q49 0 85.5 36.5t54.5 92t26 106.5t8 95 q0 166 -102 166q-50 0 -86 -37t-53.5 -94t-25 -109t-7.5 -98zM754 233q0 82 16 158.5t49.5 145t93.5 110t138 41.5q202 0 202 -250q0 -94 -17.5 -173t-52.5 -142t-95.5 -99t-139.5 -36q-99 0 -146.5 65t-47.5 180zM866 250q0 -160 101 -160q45 0 79.5 31.5t54.5 81.5t30 106 t10 113q0 76 -25.5 120t-77.5 44q-49 -4 -85 -41.5t-53.5 -93t-25.5 -106t-8 -95.5z" />
<glyph unicode="&#x26;" horiz-adv-x="1392" d="M96 319q0 164 86 266.5t262 180.5q-90 97 -133 166.5t-43 138.5q0 177 118 280t298 103q142 0 221.5 -74t79.5 -198q0 -96 -38.5 -172.5t-108 -136t-185.5 -125.5l265 -336q76 131 106 327h133q-25 -125 -53 -213.5t-45.5 -125.5t-52.5 -99l223 -299h-185l-126 182 q-73 -84 -193 -141t-238 -57q-191 0 -291 89t-100 244zM244 340q0 -101 69.5 -161t192.5 -60q96 0 193 50.5t147 113.5l-320 401q-282 -134 -282 -344zM422 1106q0 -23 7 -47t14.5 -41.5t26.5 -45t29.5 -41.5t38 -47t37.5 -46q267 142 267 329q0 75 -53 114.5t-132 39.5 q-93 0 -164 -59t-71 -156z" />
<glyph unicode="'" horiz-adv-x="342" d="M135 752l76 530h137l-76 -530h-137z" />
<glyph unicode="(" horiz-adv-x="520" d="M166 358q0 314 98 622.5t281 584.5l119 -27q-170 -271 -263.5 -569.5t-93.5 -601.5q0 -308 103 -609l-131 -24q-113 293 -113 624z" />
<glyph unicode=")" horiz-adv-x="518" d="M-45 -240q170 271 263 569.5t93 602.5q0 310 -102 608l131 25q113 -293 113 -625q0 -313 -98 -621t-281 -585z" />
<glyph unicode="*" horiz-adv-x="792" d="M135 993l258 129l-219 129l80 113l186 -168l23 293h121l-66 -293l242 166l41 -117l-256 -119l223 -122l-74 -119l-196 166l-17 -293h-121l60 293l-242 -166z" />
<glyph unicode="+" horiz-adv-x="864" d="M84 537l20 133h302l57 409h139l-57 -409h317l-20 -133h-318l-55 -396h-139l55 396h-301z" />
<glyph unicode="," horiz-adv-x="448" d="M4 -319l236 546l133 -49l-285 -530z" />
<glyph unicode="-" horiz-adv-x="530" d="M121 520l20 154h351l-21 -154h-350z" />
<glyph unicode="." horiz-adv-x="337" d="M92 0l31 217h137l-31 -217h-137z" />
<glyph unicode="/" horiz-adv-x="905" d="M-2 -297l870 1935h146l-871 -1935h-145z" />
<glyph unicode="0" horiz-adv-x="1069" d="M121 457q0 80 5 159.5t21 181t41 190t70 176.5t103.5 150.5t145 101t191.5 38.5q351 0 351 -467q0 -80 -5 -159.5t-21 -181.5t-41.5 -190.5t-70 -177t-103.5 -150.5t-145.5 -101t-191.5 -39q-350 0 -350 469zM270 492q0 -371 232 -371q71 0 131 39t102.5 106t75 150.5 t51 178.5t28 184.5t9.5 172.5q0 369 -229 369q-83 0 -152.5 -56t-114.5 -144t-76 -200t-44 -220t-13 -209z" />
<glyph unicode="1" horiz-adv-x="956" d="M25 0l18 133h360l162 1149l-350 -227l-51 114l422 265h137l-182 -1301h282l-18 -133h-780z" />
<glyph unicode="2" horiz-adv-x="966" d="M55 0l21 147q56 58 141.5 145.5t131.5 135t112.5 118.5t102 113.5t82 100.5t69.5 99.5t46.5 91t32.5 95t9 91.5q0 184 -213 184q-69 0 -146 -10.5t-119 -21.5l-42 -11l-11 119q17 6 47 15.5t117 25.5t168 16q174 0 263 -75t89 -208q0 -60 -11.5 -118.5t-38 -119 t-56.5 -114.5t-80.5 -119.5t-96 -120t-117 -130t-129.5 -134.5t-147 -148l-34 -34h588l-21 -133h-758z" />
<glyph unicode="3" horiz-adv-x="972" d="M51 84l62 115q16 -9 43.5 -22t107 -34.5t150.5 -21.5q133 0 224 86t91 225q0 110 -67 173t-193 63h-174l18 133h174q128 0 213.5 96t85.5 238q0 186 -206 186q-62 0 -139 -21t-123 -42l-46 -21l-10 119q18 11 49.5 27.5t119 43.5t163.5 27q174 0 259 -77.5t85 -213.5 q0 -160 -80 -280t-223 -148q113 -11 180.5 -82.5t67.5 -193.5q0 -210 -134.5 -340.5t-375.5 -130.5q-56 0 -110 10t-90.5 24t-65.5 28t-43 24z" />
<glyph unicode="4" horiz-adv-x="995" d="M14 268l15 101l542 1065h148l-526 -1033h421l56 381h133l-55 -381h151l-18 -133h-152l-37 -268h-133l37 268h-582z" />
<glyph unicode="5" horiz-adv-x="1030" d="M80 96l57 109q18 -9 48 -22.5t113.5 -36.5t154.5 -23q150 0 247 110t97 271q0 118 -82.5 175.5t-233.5 57.5l-243 2l141 695h657l-26 -134h-531l-80 -432q58 2 115 2q201 0 317.5 -87t116.5 -246q0 -109 -35 -207.5t-100 -175t-166 -121.5t-225 -45q-57 0 -113.5 11 t-96 27t-70.5 32t-46 27z" />
<glyph unicode="6" horiz-adv-x="1060" d="M141 426q0 127 16 248t47.5 237.5t84 214t120.5 171.5t162 115.5t205 41.5q72 0 139 -17t98 -34l31 -17l-51 -122q-14 6 -37.5 15t-90.5 24.5t-126 15.5q-86 0 -154 -40t-115.5 -114.5t-79.5 -165t-56 -208.5q160 75 295 75q174 0 267 -83t93 -242q0 -152 -56 -276.5 t-167.5 -200.5t-259.5 -76q-190 0 -277.5 112t-87.5 326zM293 446q0 -161 58 -243t184 -82q59 0 109.5 24.5t85.5 64.5t60.5 91t37.5 104t12 103q0 225 -236 225q-58 0 -126.5 -21t-105 -39t-65.5 -36q-14 -98 -14 -191z" />
<glyph unicode="7" horiz-adv-x="933" d="M104 0l740 1280h-666l21 154h829l-20 -154l-742 -1280h-162z" />
<glyph unicode="8" horiz-adv-x="1060" d="M102 311q0 137 80.5 248.5t216.5 185.5q-157 97 -157 259q0 197 130.5 323.5t336.5 126.5q159 0 248.5 -83.5t89.5 -207.5q0 -126 -71 -248.5t-183 -209.5q86 -51 136 -113t50 -148q0 -204 -145 -330t-369 -126q-183 0 -273 91t-90 232zM250 338q0 -99 62 -160t190 -61 q58 0 115.5 21t104.5 57.5t76 92.5t29 120q0 33 -10 61.5t-32.5 53t-46 44t-64 40.5t-72.5 36t-84 37q-111 -50 -189.5 -139.5t-78.5 -202.5zM389 1049q0 -49 28.5 -96.5t74 -83t93.5 -61.5t95 -42q90 66 152.5 159t62.5 197q0 88 -56.5 143.5t-154.5 55.5 q-114 0 -204.5 -76t-90.5 -196z" />
<glyph unicode="9" horiz-adv-x="1026" d="M115 55l49 123q14 -6 37.5 -15t90.5 -24.5t126 -15.5q301 0 403 528q-48 -26 -128.5 -51t-164.5 -25q-169 0 -259.5 83t-90.5 241q0 154 54.5 278.5t164 200.5t256.5 76q185 0 273 -116t88 -316q0 -123 -14.5 -241.5t-44.5 -236.5t-81 -217t-118.5 -175.5t-163 -120 t-209.5 -43.5q-72 0 -139 16.5t-98 33.5zM330 930q0 -221 223 -221q138 0 297 94v8q14 95 14 186q0 324 -241 324q-86 0 -154 -56.5t-103.5 -145t-35.5 -189.5z" />
<glyph unicode=":" horiz-adv-x="399" d="M94 0l31 217h137l-31 -217h-137zM207 807l31 217h137l-31 -217h-137z" />
<glyph unicode=";" horiz-adv-x="509" d="M10 -315l244 546l125 -49l-283 -530zM328 807l30 217h140l-31 -217h-139z" />
<glyph unicode="&#x3c;" horiz-adv-x="972" d="M145 551l17 117l786 460l-22 -163l-639 -355l538 -358l-22 -160z" />
<glyph unicode="=" horiz-adv-x="1069" d="M141 334l19 133h792l-18 -133h-793zM199 739l18 133h793l-19 -133h-792z" />
<glyph unicode="&#x3e;" horiz-adv-x="972" d="M109 94l22 158l637 358l-537 355l23 163l655 -460l-14 -115z" />
<glyph unicode="?" horiz-adv-x="854" d="M246 0l26 201h138l-27 -201h-137zM291 1399q153 55 274 55q139 0 215 -69t76 -193q0 -67 -19.5 -125.5t-52 -102.5t-72 -84.5t-80.5 -79t-76.5 -77.5t-62 -90t-34.5 -107l-19 -129h-135l17 119q10 70 36.5 129.5t61 102t74 81t76.5 74t67.5 73t49 86t18.5 105.5 q0 71 -44.5 111.5t-136.5 40.5q-122 0 -229 -39z" />
<glyph unicode="@" horiz-adv-x="1673" d="M145 297q0 125 15.5 244t49.5 234.5t84.5 216t123.5 185.5t163 146t207 95t252 34q129 0 229.5 -28.5t164 -77t104.5 -118t57.5 -146t16.5 -167.5q0 -221 -69.5 -391.5t-200 -266t-302.5 -95.5q-48 0 -73 4l4 135q-145 -145 -279 -145q-90 0 -135 59.5t-45 159.5 q0 81 18.5 172t58 181.5t93 163t131.5 118t166 45.5q35 0 63.5 -7t50 -21.5t34 -25.5t28 -29t19.5 -22l40 82h84l-239 -756q88 1 160.5 40t120 101t80.5 142.5t47 162.5t14 163q0 434 -461 434q-170 0 -309 -74t-231 -205.5t-141.5 -312.5t-49.5 -395q0 -232 94.5 -340.5 t298.5 -108.5h319l-12 -110q-170 -17 -334 -17q-510 0 -510 541zM629 403q0 -74 28.5 -100.5t75.5 -26.5q64 0 115 35t147 131l125 396q-1 1 -10 13.5t-14.5 19t-19 18.5t-26.5 18.5t-34 11.5t-45 5q-60 0 -116 -36.5t-96 -94.5t-70 -128t-45 -138t-15 -124z" />
<glyph unicode="A" horiz-adv-x="1067" d="M-25 0l623 1434h168l225 -1434h-153l-66 453h-463l-190 -453h-144zM362 586h396l-99 692z" />
<glyph unicode="B" horiz-adv-x="1081" d="M117 0l200 1434h369q175 0 261.5 -75.5t86.5 -215.5q0 -141 -81.5 -246.5t-204.5 -120.5q118 -13 182.5 -94t64.5 -199q0 -210 -140.5 -346.5t-381.5 -136.5h-356zM279 133h256q133 0 224 98.5t91 231.5q0 107 -69.5 173t-205.5 66h-217zM377 834h217q119 0 207 80 t88 202q0 184 -211 184h-236z" />
<glyph unicode="C" horiz-adv-x="1077" d="M127 537q0 255 80.5 461t237.5 330t364 124q85 0 146.5 -13t136.5 -46l-50 -127q-106 53 -260 53q-108 0 -195.5 -50.5t-142.5 -129.5t-92.5 -181t-53 -199t-15.5 -190q0 -211 80.5 -329.5t234.5 -118.5q172 0 328 90l20 -117q-176 -106 -360 -106q-225 0 -342 145 t-117 404z" />
<glyph unicode="D" horiz-adv-x="1193" d="M117 0l200 1434h328q244 0 383 -149.5t139 -395.5q0 -129 -33.5 -256.5t-101 -241.5t-159.5 -201.5t-218 -138.5t-268 -51h-270zM285 133h137q105 0 199.5 45t163.5 120.5t120.5 172.5t77 203t25.5 209q0 197 -108 307t-267 110h-184z" />
<glyph unicode="E" horiz-adv-x="999" d="M117 0l200 1434h695l-19 -134h-557l-63 -454h512l-19 -137h-512l-82 -576h557l-18 -133h-694z" />
<glyph unicode="F" horiz-adv-x="940" d="M117 0l200 1434h697l-19 -134h-559l-63 -454h514l-19 -137h-514l-100 -709h-137z" />
<glyph unicode="G" horiz-adv-x="1191" d="M123 559q0 133 26 260.5t81.5 243t134.5 202t192.5 138t247.5 51.5q171 0 332 -74l-50 -127q-59 29 -158 48.5t-155 19.5q-86 0 -160.5 -33.5t-127.5 -91t-94.5 -130t-66 -154t-37 -160.5t-12.5 -152q0 -218 91 -348.5t245 -130.5q132 0 254 51l62 422h-271l19 133h407 l-88 -629q-188 -110 -381 -110q-233 0 -362 153t-129 418z" />
<glyph unicode="H" horiz-adv-x="1224" d="M117 0l200 1434h140l-86 -623h610l86 623h139l-200 -1434h-140l95 678h-611l-94 -678h-139z" />
<glyph unicode="I" horiz-adv-x="473" d="M117 0l200 1434h138l-201 -1434h-137z" />
<glyph unicode="J" horiz-adv-x="630" d="M-45 8l18 129q87 -18 158 -18q39 0 70.5 19t53.5 50.5t39 78t27.5 94t18.5 106.5l119 846h-269l19 121h405l-141 -1002q-31 -222 -114 -334t-226 -112q-98 0 -178 22z" />
<glyph unicode="K" horiz-adv-x="1056" d="M117 0l200 1434h138l-90 -648l628 648h168l-520 -545l332 -889h-174l-267 784l-194 -194l-82 -590h-139z" />
<glyph unicode="L" horiz-adv-x="872" d="M117 0l200 1434h138l-183 -1301h553l-18 -133h-690z" />
<glyph unicode="M" horiz-adv-x="1357" d="M51 0l201 1434h156l311 -789l547 789h139l-201 -1434h-139l166 1176l-526 -799l-50 2l-303 795l-164 -1174h-137z" />
<glyph unicode="N" horiz-adv-x="1251" d="M117 0l200 1434h144l469 -1192l166 1192h137l-201 -1436h-151l-459 1149l-162 -1147h-143z" />
<glyph unicode="O" horiz-adv-x="1196" d="M123 535q0 128 21.5 253.5t70 247t119.5 213.5t178.5 148.5t237.5 56.5q109 0 191 -40.5t132.5 -114t75.5 -171t25 -217.5q0 -127 -22 -253t-71.5 -247.5t-121 -214t-179 -149.5t-237.5 -57q-108 0 -189.5 41t-131.5 115.5t-74.5 172t-24.5 216.5zM274 561 q0 -196 72 -316t217 -120q81 0 150.5 36.5t118.5 98t87 138.5t60.5 162.5t33.5 165t11 151.5q0 124 -29.5 221.5t-97 160t-164.5 62.5q-98 0 -178.5 -52.5t-131.5 -134t-85.5 -185t-49 -201t-14.5 -187.5z" />
<glyph unicode="P" horiz-adv-x="997" d="M117 0l200 1434h308q198 0 300.5 -75.5t102.5 -223.5q0 -248 -133 -390.5t-369 -142.5h-188l-84 -602h-137zM356 733h123q200 0 304 84.5t104 269.5q0 111 -68 163.5t-215 52.5h-168z" />
<glyph unicode="Q" horiz-adv-x="1200" d="M123 539q0 97 15 197.5t45 205t82 195.5t119 162.5t162 113t206 41.5q108 0 190.5 -40t133.5 -113.5t76.5 -171t25.5 -216.5q0 -413 -215 -716l151 -207l-104 -101l-148 207q-138 -110 -317 -110q-108 0 -190.5 42t-132.5 117.5t-74.5 174.5t-24.5 219zM276 561 q0 -127 29 -223.5t95.5 -156.5t164.5 -60q122 0 219 78l-135 188l107 100l125 -182q72 114 108.5 265t36.5 307q0 124 -29.5 222t-97.5 161t-166 63q-96 0 -176 -52t-130.5 -133.5t-85.5 -185t-50 -202t-15 -189.5z" />
<glyph unicode="R" horiz-adv-x="1112" d="M117 0l200 1434h373q166 0 249 -75t83 -214q0 -146 -88.5 -274t-218.5 -148q55 -17 82.5 -38t47.5 -66t42 -140l114 -479h-145l-115 459q-33 130 -88.5 171.5t-189.5 41.5h-115l-94 -672h-137zM367 803h208q129 0 210 91.5t81 219.5q0 93 -53 141t-149 48h-228z" />
<glyph unicode="S" horiz-adv-x="1015" d="M66 100l61 117q18 -10 48.5 -24t113.5 -38t151 -24q135 0 232.5 80.5t97.5 210.5q0 67 -30 115.5t-78 78t-105.5 54t-115.5 53t-106 65.5t-78 101t-30 151q0 177 113 295.5t305 118.5q149 0 316 -72l-50 -137l-65 24q-129 42 -219 42q-117 0 -183.5 -70.5t-66.5 -173.5 q0 -66 30 -113t78 -74.5t106.5 -50.5t116.5 -49.5t106 -63t78 -100t30 -151.5q0 -199 -138.5 -338t-353.5 -139q-107 0 -204.5 33.5t-159.5 78.5z" />
<glyph unicode="T" horiz-adv-x="929" d="M168 1296l18 138h856l-18 -138h-358l-183 -1296h-135l182 1296h-362z" />
<glyph unicode="U" horiz-adv-x="1224" d="M180 389q0 57 10 139l127 906h140l-129 -930q-9 -55 -9 -98q0 -137 66.5 -211t192.5 -74q142 0 237 99t121 284l129 930h141l-127 -906q-36 -268 -169.5 -404t-350.5 -136q-187 0 -283 100.5t-96 300.5z" />
<glyph unicode="V" horiz-adv-x="1007" d="M174 1434h156l137 -1260l514 1260h152l-598 -1434h-195z" />
<glyph unicode="W" horiz-adv-x="1382" d="M172 1432h160l47 -1258l369 870h104l102 -870l410 1258h145l-508 -1432h-159l-72 831l-346 -831h-152z" />
<glyph unicode="X" horiz-adv-x="1077" d="M-12 0l532 754l-295 680h176l215 -566l388 566h165l-489 -680l309 -754h-170l-237 645l-428 -645h-166z" />
<glyph unicode="Y" horiz-adv-x="1015" d="M172 1434h154l233 -664l434 664h150l-535 -789l-90 -645h-139l90 645z" />
<glyph unicode="Z" horiz-adv-x="935" d="M23 0l18 127l754 1173h-592l18 134h754l-17 -117l-749 -1182h641l-19 -135h-808z" />
<glyph unicode="[" horiz-adv-x="626" d="M63 -410l289 2048h383l-18 -133h-244l-252 -1784h248l-18 -131h-388z" />
<glyph unicode="\" horiz-adv-x="892" d="M254 1638h145l328 -1935h-147z" />
<glyph unicode="]" horiz-adv-x="626" d="M-29 -410l19 131h248l251 1784h-243l18 133h381l-289 -2048h-385z" />
<glyph unicode="^" horiz-adv-x="1177" d="M131 563l528 803h103l301 -803h-143l-230 654l-411 -654h-148z" />
<glyph unicode="_" horiz-adv-x="792" d="M-37 -483l19 133h790l-18 -133h-791z" />
<glyph unicode="`" horiz-adv-x="720" d="M246 1440l149 61l168 -289l-114 -43z" />
<glyph unicode="a" horiz-adv-x="991" d="M106 342q0 104 15 201t49.5 189t85.5 160.5t129.5 110t175.5 41.5q182 0 273 -131l32 111h82l-145 -1024h-80l-33 121l-26 -23q-133 -112 -287 -112q-271 0 -271 356zM250 365q0 -246 153 -246q108 0 202 85t114 216l57 399q-96 92 -207 92q-72 0 -128.5 -33.5t-91.5 -87 t-58 -126.5t-32 -146.5t-9 -152.5z" />
<glyph unicode="b" horiz-adv-x="1005" d="M115 0l200 1434h140l-72 -512q87 62 158 93.5t145 31.5q270 0 270 -357q0 -77 -9.5 -153.5t-29.5 -157.5t-55.5 -149.5t-84 -123.5t-119.5 -86.5t-156 -31.5q-70 0 -139 35t-111 77l-55 -100h-82zM285 219q31 -48 87.5 -74t116.5 -26q63 0 114 24.5t85 67.5t58.5 95.5 t37.5 114.5t19 117.5t6 110.5q0 130 -41 197t-111 67q-60 0 -121 -25t-94 -49t-80 -63z" />
<glyph unicode="c" horiz-adv-x="798" d="M109 383q0 102 15 194t51 179t91 149.5t140 100.5t192 38q31 0 59 -3t57 -10t42.5 -10.5t44 -14t33.5 -11.5l-72 -118q-94 32 -178 32q-74 0 -132 -33t-93 -84.5t-57.5 -122t-31 -138.5t-8.5 -140q0 -268 209 -268q104 0 225 37l9 -121q-152 -49 -267 -49 q-166 0 -247.5 102.5t-81.5 290.5z" />
<glyph unicode="d" horiz-adv-x="997" d="M84 340q0 332 122 517t333 185q125 0 235 -100l70 492h139l-203 -1434h-82l-30 117q-93 -67 -165 -100t-149 -33q-270 0 -270 356zM231 381q0 -130 41 -197t111 -67q60 0 121 25t94 49t80 63l74 532q-31 52 -88.5 88.5t-112.5 36.5q-84 0 -147.5 -43t-100.5 -118 t-54.5 -167.5t-17.5 -201.5z" />
<glyph unicode="e" horiz-adv-x="901" d="M106 377q0 93 16.5 184.5t53 179.5t89.5 154.5t132.5 107.5t175.5 41q140 0 216.5 -67t76.5 -186q0 -140 -124.5 -229t-374.5 -89q-51 0 -113 6q-8 -47 -8 -94q0 -75 20.5 -129t57 -83t78.5 -41.5t92 -12.5q23 0 47 2.5t39 4.5t44.5 10.5t37.5 11t46.5 15.5t45.5 15 l4 -119q-74 -27 -109.5 -39t-87 -22t-100.5 -10q-164 0 -259.5 95.5t-95.5 293.5zM276 596q50 -6 101 -6q95 0 172 17.5t130.5 62t53.5 110.5q0 64 -41.5 97.5t-136.5 33.5q-62 0 -110.5 -25t-80.5 -71.5t-52.5 -98.5t-35.5 -120z" />
<glyph unicode="f" horiz-adv-x="534" d="M25 -418q50 63 77 145t43 203l134 971h-142l19 123h139l24 176q10 71 39 123t69 79t81.5 39.5t87.5 12.5q59 0 135 -27l-37 -110q-61 12 -88 12q-130 0 -149 -137l-23 -168h191l-19 -123h-188l-127 -921q-24 -174 -70 -279t-129 -190z" />
<glyph unicode="g" horiz-adv-x="997" d="M88 -403l41 108q144 -55 264 -55q93 0 171 71.5t98 217.5l22 170l-12 -11q-154 -112 -287 -112q-270 0 -270 356q0 329 127 515.5t327 186.5q156 0 238 -151l65 133h82l-147 -1069q-31 -222 -147 -331t-285 -109q-50 0 -101 11.5t-85 25t-101 43.5zM258 365 q0 -246 154 -246q46 0 89.5 12.5t82.5 36t64 42t57 46.5l51 367q6 54 6 65q0 101 -59 162t-125 61q-87 0 -150.5 -42.5t-100 -119.5t-53 -172t-16.5 -212z" />
<glyph unicode="h" horiz-adv-x="1024" d="M117 0l200 1434h136l-68 -492q46 36 71.5 52.5t79.5 33t121 16.5q112 0 182 -68.5t70 -195.5q0 -27 -4 -67l-100 -713h-137l94 668q6 38 6 69q0 87 -40 132.5t-118 45.5q-68 0 -133.5 -29t-107.5 -69l-115 -817h-137z" />
<glyph unicode="i" horiz-adv-x="421" d="M92 0l144 1024h137l-144 -1024h-137zM268 1251l25 183h137l-24 -183h-138z" />
<glyph unicode="j" horiz-adv-x="409" d="M-35 -418q50 63 77 144.5t46 203.5l154 1094h137l-148 -1044q-26 -176 -71 -280.5t-127 -188.5zM272 1253l27 181h137l-26 -181h-138z" />
<glyph unicode="k" horiz-adv-x="937" d="M117 0l200 1434h138l-119 -844l457 434h174l-447 -416l324 -608h-156l-264 512l-115 -111l-55 -401h-137z" />
<glyph unicode="l" horiz-adv-x="473" d="M117 0l200 1434h138l-201 -1434h-137z" />
<glyph unicode="m" horiz-adv-x="1566" d="M131 0l143 1024h91l8 -106q38 31 59 46t59.5 37.5t81.5 32.5t93 10q82 0 143.5 -35t91.5 -104q50 40 85 64t100 49.5t126 25.5q113 0 184.5 -66t71.5 -192q0 -29 -4 -65l-100 -721h-135l92 657q4 25 4 66q0 93 -41.5 140.5t-114.5 47.5q-47 0 -104 -22t-89 -42t-54 -38 q0 -57 -4 -88l-101 -721h-135l92 657q6 37 6 68q0 91 -42 138.5t-113 47.5q-43 0 -78.5 -7.5t-67 -24.5t-48.5 -29t-48 -37l-113 -813h-139z" />
<glyph unicode="n" horiz-adv-x="1019" d="M131 0l143 1024h88l9 -100q36 28 57 42.5t60.5 36t83 31.5t94.5 10q113 0 183.5 -68t70.5 -194q0 -27 -7 -71l-98 -711h-137l92 666q6 37 6 69q0 87 -40 132.5t-118 45.5q-67 0 -129.5 -29t-107.5 -71l-113 -813h-137z" />
<glyph unicode="o" d="M102 408q0 178 54.5 320.5t164.5 229t259 86.5q164 0 251 -108.5t87 -323.5q0 -128 -31 -239.5t-89.5 -198t-152.5 -136.5t-211 -50q-332 0 -332 420zM244 412q0 -153 46.5 -222t155.5 -69q85 0 150.5 39t103.5 106.5t57 151t19 180.5q0 160 -52.5 236.5t-162.5 76.5 q-68 0 -122.5 -28.5t-90 -76t-59.5 -112.5t-34.5 -135t-10.5 -147z" />
<glyph unicode="p" horiz-adv-x="1005" d="M78 -483l211 1507h82l30 -117q88 65 161 101t155 36q270 0 270 -354q0 -331 -115 -516.5t-340 -185.5q-56 0 -106 18t-75 36t-54 44l-80 -569h-139zM315 225q31 -49 89 -77.5t116 -28.5q85 0 148 39.5t100 112t54.5 165.5t17.5 209q0 131 -42 198.5t-112 67.5 q-46 0 -88 -12t-84 -39t-62 -42t-59 -48z" />
<glyph unicode="q" horiz-adv-x="997" d="M113 354q0 137 26 258t78 219t140 155.5t202 57.5q131 0 250 -137l63 117h82l-211 -1507h-139l84 600q-5 -4 -26 -25t-39.5 -35.5t-48.5 -32t-71 -27t-89 -9.5q-63 0 -115 20t-95 61.5t-67 114t-24 170.5zM260 375q0 -254 191 -254q71 0 143.5 45t116.5 119l67 471 q-27 64 -102 109.5t-144 45.5q-86 0 -149 -76t-93 -195.5t-30 -264.5z" />
<glyph unicode="r" horiz-adv-x="684" d="M131 0l143 1024h88l7 -121q98 78 162 109.5t139 31.5q14 0 26.5 -1t21.5 -3t15.5 -4t10.5 -3l4 -1l-41 -141q-32 12 -89 12q-56 0 -122 -35.5t-119 -85.5l-109 -782h-137z" />
<glyph unicode="s" horiz-adv-x="804" d="M72 68l49 114q13 -7 34.5 -17t82 -27t112.5 -17q103 0 170.5 57.5t67.5 155.5q0 42 -22.5 73.5t-58 51t-78.5 37t-86 37t-78.5 43.5t-58 64t-22.5 93q0 143 90 227t238 84q103 0 214 -38q25 -9 24 -11l-43 -131q-105 47 -209 47q-170 0 -170 -155q0 -32 22 -57.5 t57.5 -43.5t78 -36t85.5 -41t78.5 -52t57.5 -75t22 -105q0 -161 -107.5 -259.5t-281.5 -98.5q-74 0 -148.5 24.5t-119.5 55.5z" />
<glyph unicode="t" horiz-adv-x="636" d="M145 901l17 123h127l43 293h137l-43 -293h225l-16 -123h-227l-93 -651q-2 -12 -2 -37q0 -100 109 -100q30 0 94 12l4 -111q-76 -26 -141 -26q-89 0 -149 43t-60 141q0 13 4 49l96 680h-125z" />
<glyph unicode="u" horiz-adv-x="1001" d="M152 240q0 38 6 82l98 702h137l-94 -678q-8 -70 -8 -90q0 -71 28.5 -104t92.5 -33q69 0 152 45t130 96l107 764h139l-143 -1024h-80l-31 121q-33 -27 -58.5 -44.5t-67 -41t-89 -35.5t-98.5 -12q-104 0 -162.5 65t-58.5 187z" />
<glyph unicode="v" horiz-adv-x="821" d="M127 1024h162l108 -860l353 860h157l-450 -1024h-168z" />
<glyph unicode="w" horiz-adv-x="1251" d="M123 1024h147l84 -862l308 862h143l78 -870l307 870h151l-395 -1024h-170l-74 809l-286 -809h-168z" />
<glyph unicode="x" horiz-adv-x="802" d="M6 0l356 522l-200 502h151l144 -360l239 360h158l-340 -502l209 -522h-154l-147 406l-258 -406h-158z" />
<glyph unicode="y" horiz-adv-x="821" d="M33 -377q81 47 159 139t117 218l-166 1044h158l113 -860l356 860h154l-461 -1024q-90 -198 -178 -306.5t-213 -176.5z" />
<glyph unicode="z" horiz-adv-x="776" d="M53 0l17 123l510 768h-402l19 133h565l-17 -123l-509 -768h423l-18 -133h-588z" />
<glyph unicode="{" horiz-adv-x="655" d="M90 569l14 95q99 0 144 62.5t65 197.5l43 307q30 215 130 312t262 97h38l-18 -131h-37q-114 0 -164.5 -66t-74.5 -233l-43 -313q-21 -141 -54.5 -194t-126.5 -80q61 -15 87 -54.5t26 -111.5q0 -53 -8 -105l-45 -309q-13 -93 -13 -143q0 -104 39.5 -142.5t130.5 -38.5h31 l-18 -131h-43q-135 0 -208 67t-73 220q0 58 8 115l43 307q6 46 6 90q0 182 -141 182z" />
<glyph unicode="|" horiz-adv-x="534" d="M96 -416l289 2054h137l-289 -2054h-137z" />
<glyph unicode="}" horiz-adv-x="655" d="M-45 -412l18 131h29q77 0 122.5 26.5t76.5 96.5t49 201l45 309q18 129 55.5 190t120.5 81q-63 21 -88 52.5t-25 96.5q0 42 13 125l43 313q10 82 10 129q0 93 -37 131.5t-127 38.5h-37l19 131h39q286 0 286 -297q0 -44 -10 -112l-43 -307q-8 -52 -8 -105q0 -79 33 -117 t110 -38l-14 -95q-170 0 -209 -272l-43 -307q-31 -216 -129.5 -309t-257.5 -93h-41z" />
<glyph unicode="~" horiz-adv-x="972" d="M141 588q44 57 106.5 94t127.5 37q45 0 83.5 -12.5t65.5 -30.5t53 -36.5t59 -31t71 -12.5q75 0 176 94l37 -59q-45 -81 -108.5 -124.5t-131.5 -43.5q-55 0 -102 19t-75 41.5t-70 41.5t-87 19q-75 0 -174 -92z" />
<glyph unicode="&#xa1;" horiz-adv-x="491" d="M109 -219l147 1046h137l-147 -1046h-137zM287 1026l26 191h138l-27 -191h-137z" />
<glyph unicode="&#xa2;" horiz-adv-x="702" d="M115 498q0 93 13 174.5t43 159t86.5 133t135.5 77.5l27 199h121l-27 -197q95 0 207 -38l-55 -123q-76 26 -148 26q-141 0 -202.5 -100t-61.5 -297q0 -99 38.5 -143.5t125.5 -44.5q86 0 188 30l4 -129q-118 -37 -217 -37l-26 -188h-121l26 193q-157 59 -157 305z" />
<glyph unicode="&#xa3;" horiz-adv-x="995" d="M160 717l18 133h125l49 369q9 65 37.5 113t69 73.5t84 37t90.5 11.5q53 0 131 -29l-35 -110q-59 12 -88 12q-61 0 -104.5 -39.5t-53.5 -113.5l-45 -324h312l-19 -133h-311l-80 -584h502l-19 -133h-639l101 717h-125z" />
<glyph unicode="&#xa4;" horiz-adv-x="1122" d="M96 197l127 118q-28 69 -28 172q0 102 26 211.5t70 180.5l-90 122l112 109l82 -111q114 84 264 84q169 0 261 -98l133 129l71 -94l-139 -135q31 -88 31 -180q0 -102 -29.5 -207t-79.5 -176l97 -127l-113 -109l-94 121q-111 -82 -267 -82q-158 0 -245 90l-117 -113z M330 524q0 -120 59.5 -193t159.5 -73q150 0 240 119t90 297q0 126 -61.5 201t-174.5 75q-96 0 -169 -62.5t-108.5 -158t-35.5 -205.5z" />
<glyph unicode="&#xa5;" horiz-adv-x="1124" d="M152 172l18 133h309l25 178h-309l18 133h309l-293 818h154l231 -684l437 684h149l-538 -818h342l-19 -133h-342l-25 -178h343l-19 -133h-342l-25 -172h-139l25 172h-309z" />
<glyph unicode="&#xa6;" horiz-adv-x="579" d="M121 -397l112 809h121l-112 -809h-121zM295 846l113 805h120l-112 -805h-121z" />
<glyph unicode="&#xa7;" horiz-adv-x="1114" d="M162 -233l53 133q55 -40 122 -64t128 -24q123 0 191.5 60t68.5 161q0 52 -30 95t-77.5 72.5t-105.5 57.5t-115.5 58.5t-105 66t-77.5 90t-30 121.5q0 75 36 143.5t91 122t144 117.5q-45 62 -45 137q0 166 99 253t269 87q58 0 116.5 -14t87.5 -28l30 -13l-39 -127 q-11 5 -31 13.5t-77 22t-109 13.5q-34 0 -68.5 -11t-66 -33.5t-51 -62t-19.5 -90.5q0 -41 25 -77t65 -65t88.5 -58.5t97.5 -62.5t89 -70.5t65 -89.5t25 -113q0 -111 -50.5 -185t-173.5 -163q84 -81 84 -195q0 -157 -120 -262t-316 -105q-68 0 -144 27.5t-124 61.5zM326 616 q0 -53 40 -97t91 -69t122.5 -62.5t112.5 -70.5q40 28 56 39.5t44.5 37.5t40 47.5t21.5 56t10 75.5q0 47 -20 85.5t-57.5 68.5t-75 53.5t-89.5 55t-85 57.5q-110 -77 -160.5 -140t-50.5 -137z" />
<glyph unicode="&#xa8;" horiz-adv-x="944" d="M319 1452l29 217h131l-28 -217h-132zM651 1452l29 217h129l-29 -217h-129z" />
<glyph unicode="&#xa9;" horiz-adv-x="1019" d="M145 367q0 117 19 223t58 196t95 156t134 103.5t170 37.5q159 0 241 -106.5t82 -298.5q0 -147 -30.5 -275.5t-88.5 -227.5t-149.5 -156.5t-206.5 -57.5q-159 0 -241.5 107t-82.5 299zM256 397q0 -169 52.5 -251.5t172.5 -82.5q89 0 158.5 51t111 135.5t62.5 186t21 211.5 q0 169 -53 251.5t-173 82.5q-89 0 -158.5 -51t-110.5 -135.5t-62 -186t-21 -211.5zM326 446q0 169 72 267t202 98q28 0 52.5 -4.5t50.5 -12.5t32 -10l-41 -82q-1 0 -4 1.5t-4 1.5q-62 16 -86 16q-178 0 -178 -262q0 -148 119 -148q58 0 114 21l7 -84q-86 -25 -150 -25 q-93 0 -139.5 58.5t-46.5 164.5z" />
<glyph unicode="&#xaa;" horiz-adv-x="669" d="M100 479l17 113h440l-16 -113h-441zM150 954q0 215 73 332t223 117q33 0 73.5 -17.5t60.5 -37.5l32 45h47l-88 -654h-51l-18 78q-60 -50 -101.5 -67t-93.5 -17q-74 0 -115.5 60t-41.5 161zM244 971q0 -63 22 -102.5t56 -39.5q59 0 119 47.5t67 104.5l39 287 q-46 43 -105 43q-73 0 -118.5 -45t-62.5 -117t-17 -178z" />
<glyph unicode="&#xab;" horiz-adv-x="942" d="M152 608l321 453l86 -39l-258 -410l141 -413l-98 -39zM510 608l305 428l84 -37l-244 -387l136 -391l-99 -39z" />
<glyph unicode="&#xac;" d="M113 551l18 133h793l-60 -428h-139l41 295h-653z" />
<glyph unicode="&#xad;" horiz-adv-x="737" d="M31 526l18 133h737l-18 -133h-737z" />
<glyph unicode="&#xae;" horiz-adv-x="1015" d="M172 737q0 147 30.5 275.5t88.5 227.5t149.5 156.5t206.5 57.5q159 0 241.5 -106.5t82.5 -298.5q0 -147 -30.5 -275.5t-88.5 -227.5t-149.5 -156.5t-206.5 -57.5q-159 0 -241.5 106.5t-82.5 298.5zM283 768q0 -169 52.5 -251.5t172.5 -82.5q89 0 158.5 51t110.5 135.5 t62 186t21 211.5q0 169 -52.5 251.5t-172.5 82.5q-89 0 -158.5 -51t-110.5 -135.5t-62 -186t-21 -211.5zM369 625l80 571h157q139 0 139 -119q0 -56 -37.5 -106t-89.5 -56q34 -11 47.5 -28t26.5 -70l51 -192h-86l-45 161q-15 52 -37.5 69t-74.5 17h-23l-35 -247h-73z M489 969h76q47 0 75 27.5t28 70.5q0 59 -70 59h-86z" />
<glyph unicode="&#xaf;" horiz-adv-x="915" d="M244 1257l20 134h584l-21 -134h-583z" />
<glyph unicode="&#xb0;" horiz-adv-x="833" d="M190 1194q0 169 104 282t257 113q118 0 191 -80t73 -204q0 -170 -103.5 -283t-256.5 -113q-118 0 -191.5 80.5t-73.5 204.5zM303 1214q0 -90 44.5 -142t125.5 -52q98 0 163.5 80.5t65.5 183.5q0 90 -44.5 142.5t-125.5 52.5q-98 0 -163.5 -81t-65.5 -184z" />
<glyph unicode="&#xb1;" horiz-adv-x="927" d="M41 0l18 133h758l-18 -133h-758zM143 731l19 133h301l57 410h139l-57 -410h318l-19 -133h-317l-56 -395h-139l55 395h-301z" />
<glyph unicode="&#xb2;" horiz-adv-x="802" d="M207 662l10 65q5 5 53 49.5t74.5 70.5t73 76.5t73 88t47.5 83.5t21 83q0 47 -26 68.5t-66 21.5q-34 0 -72 -6t-59 -12l-21 -5l21 82q94 29 180 29q80 0 121 -36t41 -99q0 -52 -20.5 -106t-46 -94t-77 -95t-82.5 -83.5t-94 -84.5h304l-31 -96h-424z" />
<glyph unicode="&#xb3;" horiz-adv-x="782" d="M197 639l36 88q50 -37 136 -37q72 0 117.5 34t45.5 99q0 103 -139 103h-71l14 108h74q70 0 113.5 47.5t43.5 100.5q0 75 -98 75q-37 0 -76.5 -11.5t-60.5 -23.5l-21 -12l-4 95q9 6 24.5 14.5t63 22.5t94.5 14q84 0 127 -42.5t43 -119.5q0 -75 -39.5 -132t-111.5 -83 q123 -20 123 -150q0 -104 -74 -172.5t-188 -68.5q-48 0 -91 13t-62 25z" />
<glyph unicode="&#xb4;" horiz-adv-x="745" d="M262 1212l250 289l129 -61l-276 -271z" />
<glyph unicode="&#xb6;" horiz-adv-x="1103" d="M240 1028q0 85 28.5 161.5t81 135.5t134 94t180.5 35h489l-18 -123h-129l-246 -1747h-121l246 1747h-168l-246 -1747h-119l162 1149q-128 0 -201 83t-73 212z" />
<glyph unicode="&#xb7;" horiz-adv-x="333" d="M125 506l31 211h137l-31 -211h-137z" />
<glyph unicode="&#xb8;" horiz-adv-x="694" d="M264 -299q47 81 62.5 112t30.5 77t24 110h131q-15 -99 -45 -164t-121 -198z" />
<glyph unicode="&#xb9;" horiz-adv-x="698" d="M180 647l13 98h129l67 484l-168 -103l-22 101l209 129h92l-86 -611h129l-13 -98h-350z" />
<glyph unicode="&#xba;" horiz-adv-x="681" d="M115 479l14 111h440l-14 -111h-440zM170 979q0 85 16.5 163t50.5 145t93.5 107t136.5 40q100 0 150.5 -66t50.5 -180q0 -85 -16.5 -163t-50.5 -145t-93.5 -107t-136.5 -40q-100 0 -150.5 66t-50.5 180zM287 993q0 -157 96 -157q53 0 93 59t57.5 134t17.5 145 q0 157 -96 157q-53 0 -93 -59t-57.5 -134t-17.5 -145z" />
<glyph unicode="&#xbb;" horiz-adv-x="942" d="M127 221l242 387l-133 391l98 39l182 -426l-305 -428zM467 199l258 409l-141 414l98 39l192 -449l-321 -452z" />
<glyph unicode="&#xbc;" horiz-adv-x="1630" d="M203 647l12 98h129l70 484l-166 -103l-23 101l205 129h92l-86 -611h129l-12 -98h-350zM266 0l951 1409h135l-951 -1409h-135zM874 174l13 84l397 616h107l-385 -598h258l32 236h95l-33 -238h125l-15 -100h-125l-24 -174h-94l24 174h-375z" />
<glyph unicode="&#xbd;" horiz-adv-x="1503" d="M203 647l12 98h127l70 484l-166 -103l-23 101l207 129h92l-86 -611h129l-12 -98h-350zM266 0l951 1409h135l-953 -1409h-133zM911 0l11 66q6 6 53 49.5t74.5 70t73.5 76.5t72.5 88t47.5 83.5t21 82.5q0 47 -26.5 68.5t-66.5 21.5q-34 0 -71.5 -5.5t-58.5 -10.5l-21 -6 l20 82q95 28 181 28q80 0 120.5 -36t40.5 -99q0 -52 -20.5 -106t-46 -94.5t-76.5 -94.5t-82.5 -83.5t-93.5 -84.5h303l-31 -96h-424z" />
<glyph unicode="&#xbe;" horiz-adv-x="1632" d="M190 639l37 88q49 -37 135 -37q73 0 118.5 34t45.5 99q0 103 -139 103h-72l15 108h73q70 0 114 47.5t44 100.5q0 75 -98 75q-37 0 -76.5 -11.5t-60.5 -23.5l-21 -12l-4 95q9 6 24.5 14.5t63 22.5t94.5 14q84 0 127 -42.5t43 -119.5q0 -75 -39.5 -132t-111.5 -83 q123 -20 123 -150q0 -104 -74.5 -172.5t-188.5 -68.5q-48 0 -91 13t-62 25zM264 0l953 1409h133l-951 -1409h-135zM874 174l13 84l395 616h107l-385 -598h258l32 236h97l-33 -238h125l-15 -100h-127l-24 -174h-94l24 174h-373z" />
<glyph unicode="&#xbf;" horiz-adv-x="854" d="M84 53q0 67 19.5 125.5t52 102.5t72 84.5t80.5 79t76.5 77.5t62 90t34.5 107l19 129h135l-17 -119q-10 -70 -36.5 -129.5t-61 -102t-73.5 -81t-76 -74t-67.5 -73t-49 -86t-18.5 -105.5q0 -71 44 -111.5t136 -40.5q122 0 229 39l4 -119q-153 -55 -274 -55q-139 0 -215 69 t-76 193zM530 1044l27 201h137l-26 -201h-138z" />
<glyph unicode="&#xc0;" horiz-adv-x="1067" d="M-25 0l623 1434h168l225 -1434h-153l-66 453h-463l-190 -453h-144zM362 586h396l-99 692zM424 1796h156l100 -254h-113z" />
<glyph unicode="&#xc1;" horiz-adv-x="1067" d="M-25 0l623 1434h168l225 -1434h-153l-66 453h-463l-190 -453h-144zM362 586h396l-99 692zM573 1540l175 254h155l-217 -254h-113z" />
<glyph unicode="&#xc2;" horiz-adv-x="1067" d="M-25 0l623 1434h168l225 -1434h-153l-66 453h-463l-190 -453h-144zM352 1598l283 204h88l221 -204l-43 -60l-240 154l-282 -154zM362 586h396l-99 692z" />
<glyph unicode="&#xc3;" horiz-adv-x="1067" d="M-141 0l622 1434h168l225 -1434h-153l-66 453h-462l-191 -453h-143zM246 586h395l-98 692zM319 1638q13 16 34 40t71.5 64t83.5 40q39 0 137 -56.5t123 -56.5q24 0 53 19.5t47 39.5l17 19l55 -53q-5 -6 -13 -15.5t-31.5 -34.5t-45.5 -44t-49.5 -34.5t-48.5 -15.5 q-40 0 -139.5 56.5t-123.5 56.5t-53.5 -19.5t-47.5 -39.5l-17 -19z" />
<glyph unicode="&#xc4;" horiz-adv-x="1067" d="M-25 0l623 1434h168l225 -1434h-153l-66 453h-463l-190 -453h-144zM362 586h396l-99 692zM409 1546l29 217h131l-28 -217h-132zM741 1546l29 217h129l-29 -217h-129z" />
<glyph unicode="&#xc5;" horiz-adv-x="1067" d="M-25 0l623 1434h168l225 -1434h-153l-66 453h-463l-190 -453h-144zM362 586h396l-99 692zM475 1716q0 118 58 196.5t182 78.5q91 0 135.5 -46.5t44.5 -129.5q0 -118 -58 -196.5t-182 -78.5q-91 0 -135.5 46.5t-44.5 129.5zM580 1724q0 -94 86 -94q64 0 94.5 51t30.5 125 q0 95 -86 95q-64 0 -94.5 -51.5t-30.5 -125.5z" />
<glyph unicode="&#xc6;" horiz-adv-x="1568" d="M-25 0l803 1434h805l-18 -134h-594l-64 -454h547l-18 -137h-547l-82 -576h594l-19 -133h-733l64 453h-332l-262 -453h-144zM455 586h276l100 712z" />
<glyph unicode="&#xc7;" horiz-adv-x="1077" d="M127 537q0 255 80.5 461t237.5 330t364 124q85 0 146.5 -13t136.5 -46l-50 -127q-106 53 -260 53q-108 0 -195.5 -50.5t-142.5 -129.5t-92.5 -181t-53 -199t-15.5 -190q0 -211 80.5 -329.5t234.5 -118.5q172 0 328 90l20 -117q-140 -86 -289 -102q-13 -97 -44 -164 t-121 -201l-82 64q61 104 81 155t33 146q-195 18 -296 161.5t-101 383.5z" />
<glyph unicode="&#xc8;" horiz-adv-x="999" d="M117 0l200 1434h695l-19 -134h-557l-63 -454h512l-19 -137h-512l-82 -576h557l-18 -133h-694zM455 1796h155l101 -254h-113z" />
<glyph unicode="&#xc9;" horiz-adv-x="999" d="M117 0l200 1434h695l-19 -134h-557l-63 -454h512l-19 -137h-512l-82 -576h557l-18 -133h-694zM502 1540l174 254h155l-217 -254h-112z" />
<glyph unicode="&#xca;" horiz-adv-x="1001" d="M117 0l200 1434h695l-19 -134h-557l-63 -454h512l-19 -137h-512l-82 -576h557l-18 -133h-694zM297 1597l283 205h88l221 -205l-43 -59l-240 154l-282 -154z" />
<glyph unicode="&#xcb;" horiz-adv-x="999" d="M117 0l200 1434h695l-19 -134h-557l-63 -454h512l-19 -137h-512l-82 -576h557l-18 -133h-694zM383 1546l29 217h131l-29 -217h-131zM715 1546l28 217h129l-28 -217h-129z" />
<glyph unicode="&#xcc;" horiz-adv-x="466" d="M156 0l200 1434h138l-201 -1434h-137zM182 1796h156l100 -254h-112z" />
<glyph unicode="&#xcd;" horiz-adv-x="468" d="M66 0l200 1434h137l-200 -1434h-137zM236 1542l174 254h155l-217 -254h-112z" />
<glyph unicode="&#xce;" horiz-adv-x="575" d="M115 1604l282 204h88l222 -204l-43 -60l-240 154l-283 -154zM172 0l201 1434h137l-201 -1434h-137z" />
<glyph unicode="&#xcf;" horiz-adv-x="415" d="M84 1546l29 217h131l-29 -217h-131zM86 0l201 1434h137l-201 -1434h-137zM416 1546l28 217h129l-28 -217h-129z" />
<glyph unicode="&#xd0;" horiz-adv-x="1282" d="M104 649l21 133h151l93 652h327q244 0 383.5 -150t139.5 -395q0 -107 -24 -214.5t-69.5 -206.5t-114 -184t-153 -148.5t-193 -99.5t-227.5 -36h-270l90 649h-154zM336 133h137q105 0 199.5 45t163.5 120.5t120.5 172.5t77 203t25.5 209q0 197 -108 307t-267 110h-184 l-74 -518h326l-21 -133h-323z" />
<glyph unicode="&#xd1;" horiz-adv-x="1251" d="M0 0l201 1434h143l469 -1192l166 1192h137l-201 -1436h-151l-459 1149l-162 -1147h-143zM406 1638q5 6 13 15.5t31.5 34.5t45.5 44t49.5 34.5t48.5 15.5q39 0 137 -56.5t123 -56.5q24 0 53 19.5t47 39.5l17 19l55 -53q-5 -6 -13 -15.5t-31.5 -34.5t-45.5 -44t-49.5 -34.5 t-48.5 -15.5q-40 0 -139.5 56.5t-123.5 56.5t-53.5 -19.5t-47.5 -39.5l-17 -19z" />
<glyph unicode="&#xd2;" horiz-adv-x="1193" d="M123 535q0 -119 24.5 -216.5t74.5 -172t131.5 -115.5t189.5 -41q130 0 237.5 57t179 149.5t121 214t71.5 247.5t22 253q0 120 -25 217.5t-75.5 171t-132.5 114t-191 40.5q-130 0 -237.5 -56.5t-178.5 -148.5t-119.5 -213.5t-70 -247t-21.5 -253.5zM274 561 q0 90 14.5 187.5t49 201t85.5 185t131.5 134t178.5 52.5q97 0 164.5 -62.5t97 -160t29.5 -221.5q0 -72 -11 -151.5t-33.5 -165t-60.5 -162.5t-87 -138.5t-118.5 -98t-150.5 -36.5q-145 0 -217 120t-72 316zM467 1796h156l100 -254h-113z" />
<glyph unicode="&#xd3;" horiz-adv-x="1193" d="M123 535q0 -119 24.5 -216.5t74.5 -172t131.5 -115.5t189.5 -41q130 0 237.5 57t179 149.5t121 214t71.5 247.5t22 253q0 120 -25 217.5t-75.5 171t-132.5 114t-191 40.5q-130 0 -237.5 -56.5t-178.5 -148.5t-119.5 -213.5t-70 -247t-21.5 -253.5zM274 561 q0 90 14.5 187.5t49 201t85.5 185t131.5 134t178.5 52.5q97 0 164.5 -62.5t97 -160t29.5 -221.5q0 -72 -11 -151.5t-33.5 -165t-60.5 -162.5t-87 -138.5t-118.5 -98t-150.5 -36.5q-145 0 -217 120t-72 316zM614 1542l174 254h156l-217 -254h-113z" />
<glyph unicode="&#xd4;" horiz-adv-x="1193" d="M123 535q0 128 21.5 253.5t70 247t119.5 213.5t178.5 148.5t237.5 56.5q109 0 191 -40.5t132.5 -114t75.5 -171t25 -217.5q0 -127 -22 -253t-71.5 -247.5t-121 -214t-179 -149.5t-237.5 -57q-108 0 -189.5 41t-131.5 115.5t-74.5 172t-24.5 216.5zM274 561 q0 -196 72 -316t217 -120q81 0 150.5 36.5t118.5 98t87 138.5t60.5 162.5t33.5 165t11 151.5q0 124 -29.5 221.5t-97 160t-164.5 62.5q-98 0 -178.5 -52.5t-131.5 -134t-85.5 -185t-49 -201t-14.5 -187.5zM414 1604l282 204h88l222 -204l-43 -60l-240 154l-283 -154z" />
<glyph unicode="&#xd5;" horiz-adv-x="1193" d="M8 535q0 -119 24.5 -216.5t74.5 -172t131.5 -115.5t189.5 -41q130 0 237.5 57t179 149.5t121 214t71.5 247.5t22 253q0 120 -25 217.5t-75.5 171t-132.5 114t-191 40.5q-130 0 -237.5 -56.5t-178.5 -148.5t-119.5 -213.5t-70 -247t-21.5 -253.5zM160 561q0 90 14.5 187.5 t49 201t85 185t131 134t178.5 52.5q97 0 164.5 -62.5t97 -160t29.5 -221.5q0 -87 -15 -183.5t-50.5 -199t-87 -184t-131.5 -133.5t-176 -52q-145 0 -217 120t-72 316zM360 1632q13 16 33.5 40t70.5 64t83 40q39 0 138 -56.5t124 -56.5q24 0 53 19.5t46 39.5l18 19l53 -53 q-5 -6 -13 -15.5t-31 -34.5t-45 -44t-49 -34.5t-48 -15.5q-40 0 -139.5 56.5t-123.5 56.5t-53.5 -19.5t-46.5 -39.5l-18 -19z" />
<glyph unicode="&#xd6;" horiz-adv-x="1193" d="M123 535q0 -119 24.5 -216.5t74.5 -172t131.5 -115.5t189.5 -41q130 0 237.5 57t179 149.5t121 214t71.5 247.5t22 253q0 120 -25 217.5t-75.5 171t-132.5 114t-191 40.5q-130 0 -237.5 -56.5t-178.5 -148.5t-119.5 -213.5t-70 -247t-21.5 -253.5zM274 561 q0 90 14.5 187.5t49 201t85.5 185t131.5 134t178.5 52.5q97 0 164.5 -62.5t97 -160t29.5 -221.5q0 -72 -11 -151.5t-33.5 -165t-60.5 -162.5t-87 -138.5t-118.5 -98t-150.5 -36.5q-145 0 -217 120t-72 316zM471 1544l29 217h131l-29 -217h-131zM803 1544l28 217h130 l-29 -217h-129z" />
<glyph unicode="&#xd7;" horiz-adv-x="1122" d="M96 197l414 395l-309 409l112 109l310 -410l430 414l71 -94l-430 -414l310 -411l-113 -109l-311 412l-412 -396z" />
<glyph unicode="&#xd8;" horiz-adv-x="1196" d="M123 535q0 128 21.5 253.5t70 247t119.5 213.5t178.5 148.5t237.5 56.5q81 0 157 -27l97 211h126l-122 -270q166 -136 166 -457q0 -127 -22 -253t-71.5 -247.5t-121 -214t-179 -149.5t-237.5 -57q-79 0 -150 22l-106 -235h-125l131 291q-170 137 -170 467zM274 561 q0 -227 88 -340l486 1073q-56 27 -115 27q-98 0 -178.5 -52.5t-131.5 -134t-85.5 -185t-49 -201t-14.5 -187.5zM455 145q44 -20 108 -20q81 0 150.5 36.5t118.5 98t87 138.5t60.5 162.5t33.5 165t11 151.5q0 211 -86 335z" />
<glyph unicode="&#xd9;" horiz-adv-x="1224" d="M180 389q0 -200 96 -300.5t283 -100.5q217 0 350.5 136t169.5 404l127 906h-141l-129 -930q-26 -185 -121 -284t-237 -99q-126 0 -192.5 74t-66.5 211q0 43 9 98l129 930h-140l-127 -906q-10 -82 -10 -139zM524 1798h156l100 -254h-112z" />
<glyph unicode="&#xda;" horiz-adv-x="1224" d="M180 389q0 -200 96 -300.5t283 -100.5q217 0 350.5 136t169.5 404l127 906h-141l-129 -930q-26 -185 -121 -284t-237 -99q-126 0 -192.5 74t-66.5 211q0 43 9 98l129 930h-140l-127 -906q-10 -82 -10 -139zM653 1542l174 254h156l-217 -254h-113z" />
<glyph unicode="&#xdb;" horiz-adv-x="1224" d="M180 389q0 57 10 139l127 906h140l-129 -930q-9 -55 -9 -98q0 -137 66.5 -211t192.5 -74q142 0 237 99t121 284l129 930h141l-127 -906q-36 -268 -169.5 -404t-350.5 -136q-187 0 -283 100.5t-96 300.5zM430 1604l283 204h88l221 -204l-43 -60l-240 154l-282 -154z" />
<glyph unicode="&#xdc;" horiz-adv-x="1224" d="M180 389q0 57 10 139l127 906h140l-129 -930q-9 -55 -9 -98q0 -137 66.5 -211t192.5 -74q142 0 237 99t121 284l129 930h141l-127 -906q-36 -268 -169.5 -404t-350.5 -136q-187 0 -283 100.5t-96 300.5zM487 1544l29 217h131l-28 -217h-132zM819 1544l29 217h129 l-29 -217h-129z" />
<glyph unicode="&#xdd;" horiz-adv-x="1015" d="M160 1434h153l234 -664l434 664h149l-534 -789l-90 -645h-139l90 645zM571 1540l174 254h156l-217 -254h-113z" />
<glyph unicode="&#xde;" horiz-adv-x="1005" d="M113 0l200 1434h138l-31 -226h211q173 0 267.5 -83t94.5 -220q0 -255 -129 -391.5t-372 -136.5h-189l-53 -377h-137zM322 508h122q200 0 299 82.5t99 271.5q0 114 -60 164.5t-213 50.5h-168z" />
<glyph unicode="&#xdf;" horiz-adv-x="1046" d="M117 0l153 1090q26 189 123 276.5t281 87.5q171 0 257.5 -86.5t86.5 -220.5q0 -141 -86.5 -247.5t-186.5 -117.5q103 -15 166.5 -96.5t63.5 -210.5q0 -117 -40 -212t-106.5 -153.5t-148 -90t-168.5 -31.5q-62 0 -117 10l15 108q203 0 315.5 93t112.5 266q0 96 -69.5 165 t-201.5 72h-53l18 132h52q111 0 204 86t93 204q0 89 -54.5 143t-148.5 54q-63 0 -109.5 -15t-75 -38.5t-48.5 -64.5t-30 -81.5t-18 -101.5l-143 -1020h-137z" />
<glyph unicode="&#xe0;" horiz-adv-x="950" d="M49 342q0 104 15 201t49.5 189t85.5 160.5t129.5 110t175.5 41.5q181 0 272 -131l33 111h82l-146 -1024h-79l-33 121l-27 -23q-133 -112 -287 -112q-270 0 -270 356zM193 365q0 -246 153 -246q108 0 202 85t114 216l57 399q-96 92 -207 92q-72 0 -128.5 -33.5t-91.5 -87 t-58 -126.5t-32 -146.5t-9 -152.5zM328 1440l149 61l168 -289l-115 -43z" />
<glyph unicode="&#xe1;" horiz-adv-x="950" d="M49 342q0 104 15 201t49.5 189t85.5 160.5t129.5 110t175.5 41.5q181 0 272 -131l33 111h82l-146 -1024h-79l-33 121l-27 -23q-133 -112 -287 -112q-270 0 -270 356zM193 365q0 -246 153 -246q108 0 202 85t114 216l57 399q-96 92 -207 92q-72 0 -128.5 -33.5t-91.5 -87 t-58 -126.5t-32 -146.5t-9 -152.5zM516 1212l250 289l129 -61l-277 -271z" />
<glyph unicode="&#xe2;" horiz-adv-x="950" d="M49 342q0 104 15 201t49.5 189t85.5 160.5t129.5 110t175.5 41.5q181 0 272 -131l33 111h82l-146 -1024h-79l-33 121l-27 -23q-133 -112 -287 -112q-270 0 -270 356zM193 365q0 -246 153 -246q108 0 202 85t114 216l57 399q-96 92 -207 92q-72 0 -128.5 -33.5t-91.5 -87 t-58 -126.5t-32 -146.5t-9 -152.5zM274 1253l283 205h88l221 -205l-43 -59l-239 154l-283 -154z" />
<glyph unicode="&#xe3;" horiz-adv-x="950" d="M49 342q0 104 15 201t49.5 189t85.5 160.5t129.5 110t175.5 41.5q181 0 272 -131l33 111h82l-146 -1024h-79l-33 121l-27 -23q-133 -112 -287 -112q-270 0 -270 356zM193 365q0 -246 153 -246q108 0 202 85t114 216l57 399q-96 92 -207 92q-72 0 -128.5 -33.5t-91.5 -87 t-58 -126.5t-32 -146.5t-9 -152.5zM266 1290q13 16 34 40t71.5 64t83.5 40q39 0 137 -56.5t123 -56.5q24 0 53.5 19.5t47.5 39.5l18 19l53 -53l-2 -15q-5 -6 -13 -15.5t-32 -34t-46 -43.5t-49.5 -34.5t-48.5 -15.5q-40 0 -138 56t-122 56t-54 -19t-48 -39l-17 -19z" />
<glyph unicode="&#xe4;" horiz-adv-x="950" d="M49 342q0 104 15 201t49.5 189t85.5 160.5t129.5 110t175.5 41.5q181 0 272 -131l33 111h82l-146 -1024h-79l-33 121l-27 -23q-133 -112 -287 -112q-270 0 -270 356zM193 365q0 -246 153 -246q108 0 202 85t114 216l57 399q-96 92 -207 92q-72 0 -128.5 -33.5t-91.5 -87 t-58 -126.5t-32 -146.5t-9 -152.5zM336 1217l29 217h131l-29 -217h-131zM668 1217l28 217h129l-28 -217h-129z" />
<glyph unicode="&#xe5;" horiz-adv-x="950" d="M49 342q0 104 15 201t49.5 189t85.5 160.5t129.5 110t175.5 41.5q181 0 272 -131l33 111h82l-146 -1024h-79l-33 121l-27 -23q-133 -112 -287 -112q-270 0 -270 356zM193 365q0 -246 153 -246q108 0 202 85t114 216l57 399q-96 92 -207 92q-72 0 -128.5 -33.5t-91.5 -87 t-58 -126.5t-32 -146.5t-9 -152.5zM350 1307q0 118 58 196t182 78q91 0 135.5 -46.5t44.5 -129.5q0 -118 -58 -196.5t-182 -78.5q-91 0 -135.5 47t-44.5 130zM455 1315q0 -94 86 -94q64 0 94.5 51t30.5 125q0 94 -86 94q-64 0 -94.5 -51t-30.5 -125z" />
<glyph unicode="&#xe6;" horiz-adv-x="1456" d="M51 342q0 104 15 201t49.5 189t85.5 160.5t129.5 110t175.5 41.5q183 0 276 -90l29 70h82l-8 -61q100 81 239 81q140 0 216.5 -67t76.5 -186q0 -140 -124.5 -229t-374.5 -89q-51 0 -113 6q-8 -47 -8 -94q0 -75 20.5 -129t57 -83t78 -41.5t91.5 -12.5q20 0 38.5 1t39 5 t33 6.5t37 10t34 10.5t39.5 13t40 13l4 -119q-74 -27 -109.5 -39t-87 -22t-100.5 -10q-240 0 -318 186l4 29q-160 -217 -376 -217q-271 0 -271 356zM195 365q0 -246 153 -246q108 0 202 85t114 216l61 440q-90 51 -211 51q-72 0 -128.5 -33.5t-91.5 -87t-58 -126.5 t-32 -146.5t-9 -152.5zM827 596q49 -6 101 -6q95 0 172 17.5t130.5 62t53.5 110.5q0 64 -41.5 97.5t-136.5 33.5q-62 0 -110.5 -25t-80.5 -71.5t-52.5 -98.5t-35.5 -120z" />
<glyph unicode="&#xe7;" horiz-adv-x="798" d="M109 383q0 102 15 194t51 179t91 149.5t140 100.5t192 38q31 0 59 -3t57 -10t42.5 -10.5t44 -14t33.5 -11.5l-72 -118q-94 32 -178 32q-74 0 -132 -33t-93 -84.5t-57.5 -122t-31 -138.5t-8.5 -140q0 -268 209 -268q104 0 225 37l9 -121q-118 -39 -211 -47 q-13 -96 -44.5 -164.5t-121.5 -200.5l-82 64q67 110 89.5 162t35.5 143q-132 20 -197 119.5t-65 267.5z" />
<glyph unicode="&#xe8;" horiz-adv-x="901" d="M106 377q0 93 16.5 184.5t53 179.5t89.5 154.5t132.5 107.5t175.5 41q140 0 216.5 -67t76.5 -186q0 -140 -124.5 -229t-374.5 -89q-51 0 -113 6q-8 -47 -8 -94q0 -75 20.5 -129t57 -83t78.5 -41.5t92 -12.5q23 0 47 2.5t39 4.5t44.5 10.5t37.5 11t46.5 15.5t45.5 15 l4 -119q-74 -27 -109.5 -39t-87 -22t-100.5 -10q-164 0 -259.5 95.5t-95.5 293.5zM276 596q50 -6 101 -6q95 0 172 17.5t130.5 62t53.5 110.5q0 64 -41.5 97.5t-136.5 33.5q-62 0 -110.5 -25t-80.5 -71.5t-52.5 -98.5t-35.5 -120zM330 1440l149 61l168 -289l-114 -43z" />
<glyph unicode="&#xe9;" horiz-adv-x="901" d="M106 377q0 93 16.5 184.5t53 179.5t89.5 154.5t132.5 107.5t175.5 41q140 0 216.5 -67t76.5 -186q0 -140 -124.5 -229t-374.5 -89q-51 0 -113 6q-8 -47 -8 -94q0 -75 20.5 -129t57 -83t78.5 -41.5t92 -12.5q23 0 47 2.5t39 4.5t44.5 10.5t37.5 11t46.5 15.5t45.5 15 l4 -119q-74 -27 -109.5 -39t-87 -22t-100.5 -10q-164 0 -259.5 95.5t-95.5 293.5zM276 596q50 -6 101 -6q95 0 172 17.5t130.5 62t53.5 110.5q0 64 -41.5 97.5t-136.5 33.5q-62 0 -110.5 -25t-80.5 -71.5t-52.5 -98.5t-35.5 -120zM489 1212l250 289l129 -61l-276 -271z" />
<glyph unicode="&#xea;" horiz-adv-x="901" d="M106 377q0 93 16.5 184.5t53 179.5t89.5 154.5t132.5 107.5t175.5 41q140 0 216.5 -67t76.5 -186q0 -140 -124.5 -229t-374.5 -89q-51 0 -113 6q-8 -47 -8 -94q0 -75 20.5 -129t57 -83t78.5 -41.5t92 -12.5q23 0 47 2.5t39 4.5t44.5 10.5t37.5 11t46.5 15.5t45.5 15 l4 -119q-74 -27 -109.5 -39t-87 -22t-100.5 -10q-164 0 -259.5 95.5t-95.5 293.5zM276 596q50 -6 101 -6q95 0 172 17.5t130.5 62t53.5 110.5q0 64 -41.5 97.5t-136.5 33.5q-62 0 -110.5 -25t-80.5 -71.5t-52.5 -98.5t-35.5 -120zM291 1253l282 205h89l221 -205l-43 -59 l-240 154l-283 -154z" />
<glyph unicode="&#xeb;" horiz-adv-x="901" d="M106 377q0 93 16.5 184.5t53 179.5t89.5 154.5t132.5 107.5t175.5 41q140 0 216.5 -67t76.5 -186q0 -140 -124.5 -229t-374.5 -89q-51 0 -113 6q-8 -47 -8 -94q0 -75 20.5 -129t57 -83t78.5 -41.5t92 -12.5q23 0 47 2.5t39 4.5t44.5 10.5t37.5 11t46.5 15.5t45.5 15 l4 -119q-74 -27 -109.5 -39t-87 -22t-100.5 -10q-164 0 -259.5 95.5t-95.5 293.5zM276 596q50 -6 101 -6q95 0 172 17.5t130.5 62t53.5 110.5q0 64 -41.5 97.5t-136.5 33.5q-62 0 -110.5 -25t-80.5 -71.5t-52.5 -98.5t-35.5 -120zM348 1219l29 217h131l-29 -217h-131z M680 1219l29 217h129l-29 -217h-129z" />
<glyph unicode="&#xec;" horiz-adv-x="417" d="M4 1427l150 62l168 -289l-115 -43zM106 0l144 1024h133l-143 -1024h-134z" />
<glyph unicode="&#xed;" horiz-adv-x="417" d="M106 0l144 1024h133l-143 -1024h-134zM190 1212l250 289l129 -61l-276 -271z" />
<glyph unicode="&#xee;" horiz-adv-x="421" d="M-51 1253l282 205h88l222 -205l-43 -59l-240 154l-283 -154zM106 0l144 1024h137l-143 -1024h-138z" />
<glyph unicode="&#xef;" horiz-adv-x="421" d="M8 1217l29 217h131l-29 -217h-131zM106 0l144 1024h137l-143 -1024h-138zM340 1217l29 217h129l-29 -217h-129z" />
<glyph unicode="&#xf0;" horiz-adv-x="1056" d="M162 381q0 664 497 666l-149 200l-219 -125l-60 82l226 129q-10 10 -35 36.5t-40 42.5t-35.5 36t-35.5 33l107 71l145 -157l223 118l60 -77l-225 -119q213 -262 299 -397q61 -94 61 -250q0 -108 -19 -207.5t-58.5 -186.5t-96.5 -150.5t-138 -100.5t-177 -37 q-162 0 -246 103.5t-84 289.5zM305 385q0 -264 203 -264q106 0 181.5 72.5t111 189.5t35.5 264q0 132 -53.5 196t-166.5 64q-83 0 -145.5 -43t-97.5 -118t-51.5 -165t-16.5 -196z" />
<glyph unicode="&#xf1;" horiz-adv-x="1021" d="M131 0h137l113 813q45 42 107.5 71t129.5 29q78 0 118 -45.5t40 -132.5q0 -31 -6 -69l-92 -666h137l98 711q7 44 7 71q0 126 -70.5 194t-183.5 68q-51 0 -94.5 -10t-83 -31.5t-60.5 -36t-57 -42.5l-9 100h-88zM338 1288q5 6 13 15.5t31.5 34.5t45.5 44t49.5 34.5 t48.5 15.5q39 0 137 -56.5t123 -56.5q24 0 53.5 19.5t47.5 39.5l18 19l53 -54l-2 -14q-5 -6 -13 -15.5t-31.5 -34t-45.5 -43.5t-49.5 -34.5t-48.5 -15.5q-40 0 -138 56t-122 56t-54 -19t-48 -39l-17 -19z" />
<glyph unicode="&#xf2;" d="M102 408q0 -420 332 -420q117 0 211 50t152.5 136.5t89.5 198t31 239.5q0 215 -87 323.5t-251 108.5q-149 0 -259 -86.5t-164.5 -229t-54.5 -320.5zM244 412q0 77 10.5 147t34.5 135t59.5 112.5t90 76t122.5 28.5q110 0 162.5 -76.5t52.5 -236.5q0 -97 -19 -180.5 t-57 -151t-103.5 -106.5t-150.5 -39q-109 0 -155.5 69t-46.5 222zM360 1440l150 61l168 -289l-115 -43z" />
<glyph unicode="&#xf3;" d="M102 408q0 178 54.5 320.5t164.5 229t259 86.5q164 0 251 -108.5t87 -323.5q0 -128 -31 -239.5t-89.5 -198t-152.5 -136.5t-211 -50q-332 0 -332 420zM244 412q0 -153 46.5 -222t155.5 -69q85 0 150.5 39t103.5 106.5t57 151t19 180.5q0 160 -52.5 236.5t-162.5 76.5 q-68 0 -122.5 -28.5t-90 -76t-59.5 -112.5t-34.5 -135t-10.5 -147zM477 1212l250 289l129 -61l-276 -271z" />
<glyph unicode="&#xf4;" d="M102 408q0 178 54.5 320.5t164.5 229t259 86.5q164 0 251 -108.5t87 -323.5q0 -128 -31 -239.5t-89.5 -198t-152.5 -136.5t-211 -50q-332 0 -332 420zM244 412q0 -153 46.5 -222t155.5 -69q85 0 150.5 39t103.5 106.5t57 151t19 180.5q0 160 -52.5 236.5t-162.5 76.5 q-68 0 -122.5 -28.5t-90 -76t-59.5 -112.5t-34.5 -135t-10.5 -147zM315 1254l283 204h88l221 -204l-43 -60l-240 154l-282 -154z" />
<glyph unicode="&#xf5;" d="M102 408q0 -420 332 -420q117 0 211 50t152.5 136.5t89.5 198t31 239.5q0 215 -87 323.5t-251 108.5q-149 0 -259 -86.5t-164.5 -229t-54.5 -320.5zM244 412q0 77 10.5 147t34.5 135t59.5 112.5t90 76t122.5 28.5q110 0 162.5 -76.5t52.5 -236.5q0 -97 -19 -180.5 t-57 -151t-103.5 -106.5t-150.5 -39q-109 0 -155.5 69t-46.5 222zM307 1290q13 16 34 40t71.5 64t83.5 40q39 0 137 -56.5t123 -56.5q24 0 53.5 19.5t46.5 39.5l18 19l54 -53l-2 -15q-5 -6 -13 -15.5t-32 -34t-46 -43.5t-49.5 -34.5t-48.5 -15.5q-40 0 -138 56t-122 56 t-54 -19t-47 -39l-18 -19z" />
<glyph unicode="&#xf6;" d="M102 408q0 178 54.5 320.5t164.5 229t259 86.5q164 0 251 -108.5t87 -323.5q0 -128 -31 -239.5t-89.5 -198t-152.5 -136.5t-211 -50q-332 0 -332 420zM244 412q0 -153 46.5 -222t155.5 -69q85 0 150.5 39t103.5 106.5t57 151t19 180.5q0 160 -52.5 236.5t-162.5 76.5 q-68 0 -122.5 -28.5t-90 -76t-59.5 -112.5t-34.5 -135t-10.5 -147zM376 1216l29 217h131l-28 -217h-132zM708 1216l29 217h129l-29 -217h-129z" />
<glyph unicode="&#xf7;" horiz-adv-x="966" d="M115 467l18 133h795l-19 -133h-794zM387 0l31 217h139l-31 -217h-139zM500 807l30 217h140l-31 -217h-139z" />
<glyph unicode="&#xf8;" d="M2 2l141 160q-41 93 -41 246q0 178 54.5 320.5t164.5 229t259 86.5q164 0 249 -108l160 180l96 -78l-194 -221q27 -85 27 -205q0 -128 -31 -239.5t-89.5 -198t-152.5 -136.5t-211 -50q-141 0 -219 69l-129 -145zM244 412q0 -71 10 -133l481 538q-52 98 -174 98 q-84 0 -147.5 -43t-99 -116.5t-53 -159.5t-17.5 -184zM303 168q48 -51 143 -51q85 0 150.5 39t103.5 107.5t57 152.5t19 182q0 50 -6 94z" />
<glyph unicode="&#xf9;" horiz-adv-x="1021" d="M170 240q0 -122 58.5 -187t162.5 -65q66 0 132 24.5t101.5 48.5t80.5 60l30 -121h80l143 1024h-139l-106 -764q-47 -51 -130.5 -96t-152.5 -45q-64 0 -92.5 33t-28.5 104q0 20 8 90l95 678h-138l-98 -702q-6 -43 -6 -82zM373 1440l149 61l168 -289l-115 -43z" />
<glyph unicode="&#xfa;" horiz-adv-x="1021" d="M170 240q0 38 6 82l98 702h138l-95 -678q-8 -70 -8 -90q0 -71 28.5 -104t92.5 -33q69 0 152.5 45t130.5 96l106 764h139l-143 -1024h-80l-30 121q-45 -36 -80.5 -60t-101.5 -48.5t-132 -24.5q-104 0 -162.5 65t-58.5 187zM469 1212l250 289l129 -61l-277 -271z" />
<glyph unicode="&#xfb;" horiz-adv-x="1021" d="M170 240q0 38 6 82l98 702h138l-95 -678q-8 -70 -8 -90q0 -71 28.5 -104t92.5 -33q69 0 152.5 45t130.5 96l106 764h139l-143 -1024h-80l-30 121q-45 -36 -80.5 -60t-101.5 -48.5t-132 -24.5q-104 0 -162.5 65t-58.5 187zM279 1253l282 205h88l221 -205l-43 -59l-239 154 l-283 -154z" />
<glyph unicode="&#xfc;" horiz-adv-x="1021" d="M170 240q0 -122 58.5 -187t162.5 -65q66 0 132 24.5t101.5 48.5t80.5 60l30 -121h80l143 1024h-139l-106 -764q-47 -51 -130.5 -96t-152.5 -45q-64 0 -92.5 33t-28.5 104q0 20 8 90l95 678h-138l-98 -702q-6 -43 -6 -82zM338 1217l29 217h131l-29 -217h-131zM670 1217 l28 217h129l-28 -217h-129z" />
<glyph unicode="&#xfd;" horiz-adv-x="819" d="M33 -377q81 47 159 139t117 218l-166 1044h158l113 -860l356 860h154l-461 -1024q-90 -198 -178 -306.5t-213 -176.5zM422 1212l250 289l129 -61l-277 -271z" />
<glyph unicode="&#xfe;" horiz-adv-x="1005" d="M63 -483l271 1917h139l-74 -512q90 63 159.5 94t143.5 31q271 0 271 -357q0 -335 -121.5 -518.5t-333.5 -183.5q-71 0 -133.5 30.5t-103.5 71.5l-80 -573h-138zM301 219q31 -48 88 -74t117 -26q85 0 149.5 43t101 118t54.5 167.5t18 201.5q0 136 -36 200t-119 64 q-60 0 -121 -25t-94 -49t-80 -63z" />
<glyph unicode="&#xff;" horiz-adv-x="819" d="M33 -377l39 -106q125 68 213 176.5t178 306.5l461 1024h-154l-356 -860l-113 860h-158l166 -1044q-39 -126 -117 -218t-159 -139zM342 1221l29 217h131l-29 -217h-131zM674 1221l28 217h129l-28 -217h-129z" />
<glyph unicode="&#x152;" horiz-adv-x="1609" d="M121 537q0 136 22.5 264t72 243.5t120.5 201.5t176 137t231 51h877l-18 -134h-555l-64 -454h510l-18 -137h-510l-82 -576h555l-19 -133h-876q-109 0 -191 40t-132 113t-74.5 169.5t-24.5 214.5zM272 563q0 -126 29.5 -221t96.5 -153t165 -58h195l164 1169h-193 q-92 0 -169.5 -46t-129.5 -121.5t-88.5 -172.5t-53 -197.5t-16.5 -199.5z" />
<glyph unicode="&#x153;" horiz-adv-x="1568" d="M106 408q0 178 54.5 320.5t164.5 229t259 86.5q232 0 305 -210q130 210 352 210q140 0 216.5 -67t76.5 -186q0 -140 -124.5 -229t-375.5 -89q-50 0 -112 6q-9 -52 -9 -94q0 -75 20.5 -129t57 -83t78.5 -41.5t92 -12.5q23 0 47 2.5t39 4.5t44.5 10.5t37.5 11t46.5 15.5 t45.5 15l4 -119q-74 -27 -109.5 -39t-87 -22t-100.5 -10q-245 0 -321 194q-134 -194 -369 -194q-332 0 -332 420zM248 412q0 -153 47 -222t156 -69q85 0 150 39t103.5 106.5t57 151t18.5 180.5q0 160 -52.5 236.5t-162.5 76.5q-68 0 -122.5 -28.5t-90 -76t-59.5 -112.5 t-34.5 -135t-10.5 -147zM944 596q49 -6 100 -6q95 0 172.5 17.5t131 62t53.5 110.5q0 64 -41.5 97.5t-136.5 33.5q-62 0 -110.5 -25t-80.5 -71.5t-52.5 -98.5t-35.5 -120z" />
<glyph unicode="&#x178;" horiz-adv-x="1017" d="M172 1434h154l233 -664l434 664h150l-535 -789l-90 -645h-139l90 645zM401 1671l29 217h131l-29 -217h-131zM733 1671l29 217h129l-29 -217h-129z" />
<glyph unicode="&#x2c6;" horiz-adv-x="903" d="M254 1475l283 204h88l221 -204l-43 -60l-240 154l-282 -154z" />
<glyph unicode="&#x2dc;" horiz-adv-x="950" d="M287 1501q5 6 13 15.5t31.5 34.5t45.5 44t49.5 34.5t48.5 15.5q39 0 137 -56.5t123 -56.5q24 0 53.5 19.5t47.5 38.5l18 20l53 -54l-2 -14q-5 -6 -13 -15.5t-31.5 -34t-45.5 -43.5t-49.5 -34.5t-48.5 -15.5q-40 0 -138 56t-122 56t-54 -19.5t-47 -38.5l-18 -19z" />
<glyph unicode="&#x2000;" horiz-adv-x="995" />
<glyph unicode="&#x2001;" horiz-adv-x="1991" />
<glyph unicode="&#x2002;" horiz-adv-x="995" />
<glyph unicode="&#x2003;" horiz-adv-x="1991" />
<glyph unicode="&#x2004;" horiz-adv-x="663" />
<glyph unicode="&#x2005;" horiz-adv-x="497" />
<glyph unicode="&#x2006;" horiz-adv-x="331" />
<glyph unicode="&#x2007;" horiz-adv-x="331" />
<glyph unicode="&#x2008;" horiz-adv-x="248" />
<glyph unicode="&#x2009;" horiz-adv-x="398" />
<glyph unicode="&#x200a;" horiz-adv-x="110" />
<glyph unicode="&#x2010;" horiz-adv-x="530" d="M121 520l20 154h351l-21 -154h-350z" />
<glyph unicode="&#x2011;" horiz-adv-x="530" d="M121 520l20 154h351l-21 -154h-350z" />
<glyph unicode="&#x2012;" horiz-adv-x="530" d="M121 520l20 154h351l-21 -154h-350z" />
<glyph unicode="&#x2013;" horiz-adv-x="921" d="M31 526l18 133h922l-19 -133h-921z" />
<glyph unicode="&#x2014;" horiz-adv-x="1474" d="M31 526l18 133h1475l-19 -133h-1474z" />
<glyph unicode="&#x2018;" horiz-adv-x="493" d="M160 1044l286 531l97 -35l-238 -547z" />
<glyph unicode="&#x2019;" horiz-adv-x="491" d="M127 1028l242 547l141 -49l-283 -533z" />
<glyph unicode="&#x201a;" horiz-adv-x="493" d="M35 -297l239 547l144 -49l-285 -533z" />
<glyph unicode="&#x201c;" horiz-adv-x="858" d="M160 1049l284 522l95 -33l-242 -539zM532 1044l279 527l94 -33l-237 -543z" />
<glyph unicode="&#x201d;" horiz-adv-x="858" d="M129 1028l238 543l135 -49l-279 -527zM496 1028l239 539l139 -49l-284 -523z" />
<glyph unicode="&#x201e;" horiz-adv-x="858" d="M37 -293l237 543l136 -49l-281 -527zM403 -293l240 539l137 -49l-284 -523z" />
<glyph unicode="&#x2022;" horiz-adv-x="866" d="M217 502q0 112 80.5 208.5t196.5 96.5q89 0 145.5 -63.5t56.5 -159.5q0 -72 -34 -141.5t-99 -116.5t-143 -47q-89 0 -146 63.5t-57 159.5z" />
<glyph unicode="&#x2026;" horiz-adv-x="1361" d="M94 0l31 217h137l-31 -217h-137zM594 0l31 217h137l-31 -217h-137zM1094 0l30 217h138l-31 -217h-137z" />
<glyph unicode="&#x202f;" horiz-adv-x="398" />
<glyph unicode="&#x2039;" horiz-adv-x="608" d="M150 606l319 443l92 -48l-252 -391l142 -395l-109 -47z" />
<glyph unicode="&#x203a;" horiz-adv-x="608" d="M131 215l254 391l-143 395l110 48l193 -439l-320 -442z" />
<glyph unicode="&#x205f;" horiz-adv-x="497" />
<glyph unicode="&#x20ac;" horiz-adv-x="1161" d="M55 492l19 133h143q12 127 29 196h-144l19 133h162q81 234 241.5 367t378.5 133q81 0 142 -14t135 -47l-50 -127q-110 55 -262 55q-148 0 -260.5 -97.5t-175.5 -269.5h430l-22 -135h-445q-25 -107 -28 -194h446l-20 -133h-435q11 -175 96.5 -273t231.5 -98q132 0 328 80 l20 -107q-176 -106 -360 -106q-219 0 -338 136t-127 368h-154z" />
<glyph unicode="&#x2122;" horiz-adv-x="1263" d="M197 1327l16 107h397l-16 -107h-150l-65 -471h-103l66 471h-145zM666 856l82 578h104l123 -267l205 267h100l-82 -578h-100l55 397l-199 -239h-18l-117 239l-55 -397h-98z" />
<glyph unicode="&#xe000;" horiz-adv-x="1024" d="M0 0v1024h1024v-1024h-1024z" />
<glyph unicode="&#xfb01;" horiz-adv-x="956" d="M88 901l18 123h144l26 197q10 65 37.5 112.5t66.5 72.5t80 36.5t87 11.5q59 0 135 -27l-37 -110q-62 12 -88 12q-63 0 -100 -31.5t-47 -105.5l-23 -168h494l-144 -1024h-139l125 899h-354l-125 -899h-140l125 901h-141zM772 1249l27 183h139l-27 -183h-139z" />
<glyph unicode="&#xfb02;" horiz-adv-x="839" d="M86 901l18 123h144l26 197q10 65 37.5 112.5t66.5 72.5t80 36.5t87 11.5q41 0 139 -20l139 22l-202 -1456h-138l185 1311q-83 18 -113 18q-63 0 -100 -31.5t-47 -105.5l-23 -168h186l-18 -123h-186l-125 -901h-140l125 901h-141z" />
</font>
</defs>
</svg>
