<svg
	 xmlns="http://www.w3.org/2000/svg"
	 xmlns:xlink="http://www.w3.org/1999/xlink"
	 width="100%" height="100%"
	 viewBox="0 0 940 280"
	 enable-background="new 0 0 940 280"
	 xml:space="preserve">
	 <!-- to edit/export, adjust svg tag to width="940px" height="280px" -->
<g id="discuss">
	<g id="discuss_w">
		<path id="outline" fill="#F1ECD7" stroke="#F1ECD7" stroke-width="18" d="M90.84,57.674v94.919l31.567-31.732
			c12.438-12.328,32.497-12.285,44.877,0.096l31.481,31.638V57.675c0-17.565,14.236-31.799,31.799-31.799
			c17.562,0,31.8,14.236,31.8,31.799v171.529c0.047,17.561-14.149,31.839-31.713,31.887c-8.459,0.021-16.582-3.324-22.569-9.312
			L144.8,188.411l-63.283,63.367c-12.42,12.417-32.556,12.413-44.972-0.01c-5.984-5.982-9.332-14.105-9.31-22.568V57.674
			c0-17.565,14.236-31.799,31.8-31.799C76.598,25.873,90.84,40.111,90.84,57.674L90.84,57.674z"/>
		<path id="strut-1" fill="#F99D1C" d="M90.84,57.674v171.528c0,17.562-14.236,31.796-31.8,31.796s-31.799-14.236-31.799-31.796
			V57.674c0-17.565,14.236-31.799,31.799-31.799C76.602,25.874,90.84,40.111,90.84,57.674L90.84,57.674z M59.038,44.183
			c-7.45,0-13.49,6.04-13.49,13.493c0,7.451,6.037,13.492,13.49,13.492c7.451,0,13.492-6.041,13.492-13.492
			C72.53,50.223,66.489,44.183,59.038,44.183z M59.038,215.71c-7.45,0-13.49,6.037-13.49,13.492c0,7.451,6.037,13.492,13.49,13.492
			c7.451,0,13.492-6.041,13.492-13.492C72.53,221.749,66.489,215.71,59.038,215.71z"/>
		<path id="strut-2" fill="#DC4E3E" d="M36.559,206.72l85.849-85.857c12.421-12.418,32.555-12.418,44.976,0
			c12.418,12.418,12.418,32.555,0,44.973l-85.859,85.942c-12.445,12.417-32.596,12.399-45.012-0.047
			C24.095,239.288,24.115,219.136,36.559,206.72z M59.038,215.71c-7.45,0-13.49,6.037-13.49,13.492
			c0,7.451,6.037,13.492,13.49,13.492c7.451,0,13.492-6.041,13.492-13.492C72.53,221.749,66.489,215.71,59.038,215.71z
			 M144.804,129.946c-7.452,0-13.493,6.041-13.493,13.491s6.039,13.49,13.493,13.49c7.45,0,13.49-6.036,13.49-13.49
			C158.292,135.985,152.252,129.946,144.804,129.946z"/>
		<path id="strut-3" fill="#694D9F" d="M167.284,120.954l85.86,85.852c12.418,12.447,12.4,32.598-0.042,45.017
			c-12.447,12.419-32.598,12.402-45.018-0.044l-85.762-85.76c-12.443-12.415-12.464-32.572-0.048-45.012
			C134.688,108.561,154.843,108.54,167.284,120.954z M144.804,129.946c-7.452,0-13.493,6.041-13.493,13.491
			s6.039,13.49,13.493,13.49c7.45,0,13.49-6.036,13.49-13.49C158.292,135.985,152.252,129.946,144.804,129.946z M230.566,215.71
			c-7.451,0-13.491,6.037-13.491,13.492c0,7.451,6.04,13.492,13.491,13.492c7.451,0,13.491-6.041,13.491-13.492
			C244.058,221.749,238.019,215.71,230.566,215.71z"/>
		<path id="strut-4" fill="#30B4C5" d="M198.766,229.202V57.674c0-17.565,14.236-31.799,31.799-31.799
			c17.562,0,31.8,14.236,31.8,31.799v171.528c0,17.562-14.236,31.796-31.8,31.796C213.002,261.001,198.766,246.763,198.766,229.202
			L198.766,229.202z M230.566,44.183c-7.451,0-13.491,6.04-13.491,13.493c0,7.451,6.04,13.492,13.491,13.492
			c7.451,0,13.491-6.041,13.491-13.492C244.058,50.223,238.019,44.183,230.566,44.183z M230.566,215.71
			c-7.451,0-13.491,6.037-13.491,13.492c0,7.451,6.04,13.492,13.491,13.492c7.451,0,13.491-6.041,13.491-13.492
			C244.058,221.749,238.019,215.71,230.566,215.71z"/>
		<path id="join-1" fill="#D02E27" d="M90.84,152.591V229.2c0.004,17.562-14.232,31.802-31.793,31.807
			c-17.562,0.006-31.803-14.23-31.808-31.794c-0.001-8.438,3.35-16.53,9.32-22.498L90.84,152.591z M59.038,215.71
			c-7.45,0-13.49,6.037-13.49,13.492c0,7.451,6.037,13.492,13.49,13.492c7.451,0,13.492-6.041,13.492-13.492
			C72.53,221.749,66.489,215.71,59.038,215.71z"/>
		<path id="join-2" fill="#58152A" d="M144.804,188.409l-22.483-22.487c-12.396-12.445-12.356-32.576,0.087-44.97
			c12.446-12.398,32.577-12.356,44.973,0.088c12.36,12.406,12.36,32.476,0,44.884L144.804,188.409z M144.804,129.946
			c-7.452,0-13.493,6.041-13.493,13.491s6.039,13.49,13.493,13.49c7.45,0,13.49-6.036,13.49-13.49
			C158.292,135.985,152.252,129.946,144.804,129.946z"/>
		<path id="join-3" fill="#263C82" d="M198.766,152.591V229.2c0.048,17.562,14.327,31.76,31.888,31.707
			c17.562-0.048,31.758-14.324,31.709-31.888c-0.023-8.356-3.336-16.371-9.222-22.305L198.766,152.591z M230.566,215.71
			c7.45,0,13.491,6.037,13.491,13.492c0,7.451-6.039,13.492-13.491,13.492c-7.451,0-13.491-6.041-13.491-13.492
			C217.075,221.749,223.117,215.71,230.566,215.71z"/>
	</g>
	<g id="discuss_type">
		<path fill="#F0EBDD" d="M356.647,178.604l11.324-3.775v-71.721l-11.324-4.529V86.046l34.728-0.755h14.344
			c30.199,0,48.016,17.817,48.016,51.791c0,33.973-19.629,54.658-50.279,54.658h-46.808L356.647,178.604L356.647,178.604z
			 M391.375,174.075h12.533c14.646,0,24.46-9.059,24.46-36.237c0-25.367-8.605-34.729-23.403-34.729h-13.59L391.375,174.075
			L391.375,174.075z"/>
		<path fill="#F0EBDD" d="M498.584,110.204v65.683l10.567,3.774v12.08h-44.845v-12.08l12.08-3.774v-49.375l-12.08-3.019v-12.08
			L498.584,110.204z M486.504,71.703c7.853,0,12.683,4.077,12.683,13.589c0,8.909-6.492,13.741-12.683,13.741
			c-8.153,0-12.985-4.832-12.985-13.741C473.519,76.685,479.709,71.703,486.504,71.703z"/>
		<path fill="#F0EBDD" d="M534.37,175.887c0,0,4.981,1.51,12.381,1.51c7.853,0,11.929-2.567,11.929-8.153
			c0-13.137-39.862-7.853-39.862-34.729c0-18.874,15.101-25.818,31.104-25.818c13.59,0,28.085,4.529,28.085,4.529
			c-0.302,7.549-0.454,15.1-0.604,22.648h-13.288l-2.265-9.814c0,0-3.926-1.51-9.965-1.51c-6.192,0-10.117,2.718-10.117,7.701
			c0,12.986,40.013,7.701,40.013,33.822c0,17.363-14.042,27.178-34.729,27.178c-14.345,0-27.783-3.321-27.783-3.321v-24.61h13.893
			L534.37,175.887z"/>
		<path fill="#F0EBDD" d="M663.468,180.415c-3.773,3.324-15.552,12.834-32.462,12.834c-24.915,0-39.259-15.399-39.259-41.068
			c0-26.877,15.1-43.484,41.521-43.484c12.986,0,26.425,5.284,26.425,5.284l-0.756,24.611h-13.59l-2.114-10.871
			c0,0-4.379-1.208-10.419-1.208c-10.871,0-17.667,7.098-17.667,22.648c0,16.91,6.343,26.424,18.874,26.424
			c10.569,0,17.214-5.284,21.896-8.002L663.468,180.415z"/>
		<path fill="#F0EBDD" d="M678.42,126.21l-11.023-2.717v-12.08l33.369-1.209v51.791c0,8.002,2.266,12.08,8.456,12.08
			c9.663,0,17.816-8.305,17.816-8.305V126.21l-11.174-2.717v-12.08l33.369-1.209v65.683l11.477,3.019v11.777l-30.803,1.059
			l-1.51-10.569c0,0-12.533,12.079-26.727,12.079c-15.4,0-23.252-10.114-23.252-27.025L678.42,126.21L678.42,126.21z"/>
		<path fill="#F0EBDD" d="M785.174,175.887c0,0,4.981,1.51,12.382,1.51c7.852,0,11.929-2.567,11.929-8.153
			c0-13.137-39.861-7.853-39.861-34.729c0-18.874,15.099-25.818,31.104-25.818c13.589,0,28.084,4.529,28.084,4.529
			c-0.302,7.549-0.453,15.1-0.604,22.648H814.92l-2.266-9.814c0,0-3.926-1.51-9.966-1.51c-6.19,0-10.117,2.718-10.117,7.701
			c0,12.986,40.015,7.701,40.015,33.822c0,17.363-14.043,27.178-34.729,27.178c-14.344,0-27.782-3.321-27.782-3.321v-24.61h13.893
			L785.174,175.887z"/>
		<path fill="#F0EBDD" d="M859.313,175.887c0,0,4.982,1.51,12.381,1.51c7.854,0,11.93-2.567,11.93-8.153
			c0-13.137-39.862-7.853-39.862-34.729c0-18.874,15.1-25.818,31.104-25.818c13.59,0,28.084,4.529,28.084,4.529
			c-0.302,7.549-0.453,15.1-0.604,22.648h-13.288l-2.265-9.814c0,0-3.927-1.51-9.967-1.51c-6.19,0-10.115,2.718-10.115,7.701
			c0,12.986,40.013,7.701,40.013,33.822c0,17.363-14.042,27.178-34.729,27.178c-14.345,0-27.782-3.321-27.782-3.321v-24.61h13.893
			L859.313,175.887z"/>
	</g>
</g>
</svg>
