<svg version="1.1"
	   width="100%" height="100%"
	   viewBox="0 0 269 269"
	   enable-background="new 0 0 269 269"
     xmlns="http://www.w3.org/2000/svg"
     xmlns:xlink="http://www.w3.org/1999/xlink"
	   xml:space="preserve">
<!-- to edit, adjust svg tag with: width="269px" height="269px" -->
<g id="webplatform_w_bordered">
		<path class="w_stroke"
			    fill="#F1ECD7"
			    stroke="#F1ECD7"
			    stroke-width="18"
			    d="M85.585,56.01v86.262l28.688-28.838
			c11.303-11.204,29.533-11.166,40.785,0.087l28.61,28.751V56.01c0-15.962,12.939-28.9,28.9-28.9c15.96,0,28.9,12.938,28.9,28.9
			v155.885c0.043,15.96-12.859,28.936-28.821,28.979c-7.689,0.021-15.071-3.022-20.511-8.461l-57.511-57.59l-57.511,57.59
			c-11.289,11.284-29.587,11.281-40.872-0.009c-5.438-5.438-8.481-12.819-8.46-20.51V56.01c0-15.962,12.938-28.9,28.9-28.9
			S85.585,40.049,85.585,56.01L85.585,56.01z"/>
		<path id="strut-1" fill="#F99D1C" d="M85.585,56.01v155.885c0,15.96-12.938,28.897-28.9,28.897s-28.9-12.938-28.9-28.897V56.01
			c0-15.962,12.938-28.9,28.9-28.9S85.585,40.049,85.585,56.01L85.585,56.01z M56.684,43.75c-6.772,0-12.26,5.489-12.26,12.261
			c0,6.771,5.486,12.261,12.26,12.261c6.771,0,12.261-5.49,12.261-12.261C68.945,49.239,63.455,43.75,56.684,43.75z M56.684,199.635
			c-6.772,0-12.26,5.488-12.26,12.261c0,6.771,5.486,12.262,12.26,12.262c6.771,0,12.261-5.491,12.261-12.262
			C68.945,205.124,63.455,199.635,56.684,199.635z"/>
		<path id="strut-2" fill="#DC4E3E" d="M36.254,191.464l78.02-78.029c11.288-11.287,29.586-11.287,40.874,0
			c11.286,11.286,11.286,29.585,0,40.871l-78.03,78.108c-11.309,11.284-29.623,11.266-40.907-0.043S24.945,202.748,36.254,191.464z
			 M56.684,199.635c-6.772,0-12.26,5.488-12.26,12.261c0,6.771,5.486,12.262,12.26,12.262c6.771,0,12.261-5.491,12.261-12.262
			C68.945,205.124,63.455,199.635,56.684,199.635z M134.628,121.692c-6.772,0-12.262,5.49-12.262,12.261
			c0,6.771,5.489,12.26,12.262,12.26c6.771,0,12.26-5.487,12.26-12.26C146.887,127.181,141.398,121.692,134.628,121.692z"/>
		<path id="strut-3" fill="#694D9F" d="M155.058,113.521l78.03,78.021c11.286,11.311,11.269,29.625-0.038,40.912
			c-11.311,11.286-29.625,11.269-40.912-0.04l-77.941-77.941c-11.309-11.283-11.329-29.6-0.044-40.907
			C125.435,102.257,143.751,102.238,155.058,113.521z M134.628,121.692c-6.772,0-12.262,5.49-12.262,12.261
			c0,6.771,5.489,12.26,12.262,12.26c6.771,0,12.26-5.487,12.26-12.26C146.887,127.181,141.398,121.692,134.628,121.692z
			 M212.57,199.635c-6.771,0-12.261,5.488-12.261,12.261c0,6.771,5.489,12.262,12.261,12.262s12.26-5.491,12.26-12.262
			C224.83,205.124,219.342,199.635,212.57,199.635z"/>
		<path id="strut-4" fill="#30B4C5" d="M183.669,211.896V56.01c0-15.962,12.939-28.9,28.9-28.9c15.96,0,28.9,12.938,28.9,28.9
			v155.885c0,15.96-12.938,28.897-28.9,28.897C196.608,240.795,183.669,227.855,183.669,211.896L183.669,211.896z M212.57,43.75
			c-6.771,0-12.261,5.489-12.261,12.261c0,6.771,5.489,12.261,12.261,12.261s12.26-5.49,12.26-12.261
			C224.83,49.239,219.342,43.75,212.57,43.75z M212.57,199.635c-6.771,0-12.261,5.488-12.261,12.261
			c0,6.771,5.489,12.262,12.261,12.262s12.26-5.491,12.26-12.262C224.83,205.124,219.342,199.635,212.57,199.635z"/>
		<path id="join-1" fill="#D02E27" d="M85.585,142.272v69.623c0.004,15.96-12.933,28.903-28.893,28.907
			c-15.961,0.004-28.904-12.933-28.908-28.894c-0.001-7.669,3.044-15.024,8.47-20.446L85.585,142.272z M56.684,199.635
			c-6.772,0-12.26,5.488-12.26,12.261c0,6.771,5.486,12.262,12.26,12.262c6.771,0,12.261-5.491,12.261-12.262
			C68.945,205.124,63.455,199.635,56.684,199.635z"/>
		<path id="join-2" fill="#58152A" d="M134.628,174.824l-20.432-20.439c-11.266-11.309-11.229-29.606,0.079-40.87
			c11.31-11.266,29.606-11.229,40.872,0.08c11.233,11.276,11.233,29.514,0,40.791L134.628,174.824z M134.628,121.692
			c-6.772,0-12.262,5.49-12.262,12.261c0,6.771,5.489,12.26,12.262,12.26c6.771,0,12.26-5.487,12.26-12.26
			C146.887,127.181,141.398,121.692,134.628,121.692z"/>
		<path id="join-3" fill="#263C82" d="M183.669,142.272v69.623c0.044,15.96,13.02,28.864,28.981,28.818
			c15.96-0.043,28.862-13.018,28.818-28.979c-0.021-7.596-3.032-14.879-8.381-20.271L183.669,142.272z M212.57,199.635
			c6.771,0,12.26,5.488,12.26,12.261c0,6.771-5.488,12.262-12.26,12.262s-12.261-5.491-12.261-12.262
			C200.308,205.124,205.799,199.635,212.57,199.635z"/>
</g>
</svg>
