<svg xmlns="http://www.w3.org/2000/svg" viewBox="10 0 130 130" width="40px" height="40px">
  <g transform="scale(-1, 1) translate(-30, 5) rotate(80)">
    <path stroke-linejoin="round" d="m0 10 37.297 8.194 23.311-16.247 11.443 0.70638-3.6732 5.2979 7.0638-4.5915 14.41 5.5804-2.543 6.9932 8.2647-5.086 13.633 7.6289-6.4281 6.2162 9.3949-1.9779 14.128 8.7592-9.6068 5.6511 10.454 13.845 42.948 11.585 10.454-12.15 14.128-6.7813 14.128 5.9336 4.8034 29.386 10.172 13.28 22.322-10.737-2.2604 27.973-25.147 11.02-20.344-10.454-3.1081-23.169 0.28256-20.909-8.4766-3.6732-7.3464 6.2162 5.9336 24.865-4.5209 13.563 11.585 18.931-0.5651 22.604-5.7924 11.867 0.14129 4.2383-14.834 1.2715 0.42383-6.3574 5.086-7.6289 4.8034-11.867-19.779-23.734-12.15-17.518 9.6068 30.233-10.737 14.41-10.737 8.194-6.2162 6.2162-14.128-3.3906 3.9558-7.3464 10.172-3.6732 14.693-14.41-8.194-13.845-5.3685-16.388-25.43-5.086-17.801-11.302-24.865 3.3906-1.4128 14.128 8.194 3.9558 0.56511 10.737-4.8034 4.5208-5.3685-5.6511-7.0638-5.086 0.28255-21.757 0.56511-9.6068-8.194 4.8034-9.0417 14.693 1.6953 11.02-13.28 7.0638-1.6953-7.3464 5.086-13.845 12.997-21.757 21.474-8.194 2.2604-12.432-3.1081-22.039-1.4128 6.4987 0.56511 20.344-2.543 4.2383-8.7592 1.6953-1.9779-4.2383-5.6511-14.975-6.4987-13.28-4.2383-2.8255z" stroke="#ff851b" stroke-width="4" fill="none"/>
  </g>
</svg>