<?xml version="1.0" encoding="utf-8"?>
<!-- Generator: Adobe Illustrator 16.0.0, SVG Export Plug-In . SVG Version: 6.00 Build 0)  -->
<!DOCTYPE svg PUBLIC "-//W3C//DTD SVG 1.1//EN" "http://www.w3.org/Graphics/SVG/1.1/DTD/svg11.dtd">
<svg version="1.1" id="Layer_1" xmlns="http://www.w3.org/2000/svg" xmlns:xlink="http://www.w3.org/1999/xlink" x="0px" y="0px"
	 width="14.367px" height="14.633px" viewBox="0 0 14.367 14.633" enable-background="new 0 0 14.367 14.633" xml:space="preserve">
<g>
	<path fill="#4B4B4B" d="M13.927,12.073l-2.125-2.125c-0.034-0.033-0.08-0.048-0.116-0.076c0.592-0.943,0.938-2.054,0.938-3.247
		C12.625,3.248,9.876,0.5,6.5,0.5c-3.377,0-6.125,2.748-6.125,6.125c0,3.377,2.748,6.125,6.125,6.125
		c1.122,0,2.171-0.31,3.076-0.838c0.039,0.051,0.059,0.11,0.104,0.156l2.125,2.125c0.293,0.293,0.677,0.439,1.062,0.439
		c0.383,0,0.768-0.146,1.061-0.439C14.513,13.609,14.513,12.659,13.927,12.073z M2.375,6.625C2.375,4.351,4.226,2.5,6.5,2.5
		s4.125,1.851,4.125,4.125S8.774,10.75,6.5,10.75S2.375,8.899,2.375,6.625z"/>
</g>
</svg>