<svg xmlns="http://www.w3.org/2000/svg" xmlns:xlink="http://www.w3.org/1999/xlink" width="100%" height="100%" viewBox="0 0 240 84">
   <title>Creative Commons Attribution</title>
   <metadata id="license">
       <rdf:RDF xmlns:rdf="http://www.w3.org/1999/02/22-rdf-syntax-ns#" xmlns:dc="http://purl.org/dc/elements/1.1/" xmlns:cc="http://web.resource.org/cc/">
         <cc:Work rdf:about="">
            <dc:format>image/svg+xml</dc:format>
            <dc:type rdf:resource="http://purl.org/dc/dcmitype/StillImage"/>
         </cc:Work>
      </rdf:RDF>
   </metadata>
   <style>
      text {
         font-family: AkzidenzGrotesk, Helvetica, Arial, san serif;
         font-weight: bold;
      }
   </style>
   <a xlink:href="http://creativecommons.org/licenses/by/3.0/us/">
      <rect x="1" y="1" width="238" height="82" rx="4" ry="4" fill="#F9F7F3" stroke-width="2" stroke="#000000"/>
      <path d="M1,59 H10 A35,35 0 0,0 72,59 H239 V79 Q239,83 235,83 H5 Q1,83 1,79 Z" stroke="none" fill="#000000"/>
      <g id="creative-commons">
         <circle cx="41" cy="39" r="28" stroke-width="6" fill="white" stroke="#000000"/>
         <text x="41" y="48.5" font-size="36" fill="#000000" stroke="none" text-anchor="middle">cc</text>
      </g>
      <g id="attribution" fill="#000000">
         <circle cx="152.5" cy="30" r="21" stroke-width="4" fill="white" stroke="#000000"/>
         <circle cx="152.5" cy="18" r="3.4" stroke="none"/>
         <path d="M148,22.5 H157 Q159,22.5 159,24.5 V33.5 H156 V45 H149 V33.5 H146 V25 Q146,22.5 148,22.5Z" stroke="none"/>
         <text x="152.5" y="78.5" font-size="18.5" fill="white" stroke="none" text-anchor="middle">BY</text>
      </g>
   </a>
</svg>
