<?xml version="1.0" encoding="utf-8"?>
<svg version="1.1" xmlns="http://www.w3.org/2000/svg" xmlns:xlink="http://www.w3.org/1999/xlink" width="100%" height="100%" viewBox="0 -1 30 29">
<filter id="drop-shadow">
	<feGaussianBlur in="SourceAlpha" result="blur-out" stdDeviation=".7" />
	<feOffset in="blur-out" result="the-shadow" dx="1" dy="1"/> 
	<feColorMatrix in="the-shadow" result="color-out" type="matrix" values="0 0 0 0 0 0 0 0 0 0 0 0 0 0 0 0 0 0 .3 0" />
	<feBlend in="SourceGraphic" in2="color-out" mode="normal"/>
</filter>
	
<path fill="#F9F7F3" filter="url(#drop-shadow)"
 d="M25.207,16.512c1.95-0.461,3.156-2.417,2.694-4.367c-0.339-1.432-1.485-2.461-2.842-2.725
	c0.005-0.024,0.011-0.052,0.017-0.083C25.514,8.737,25.775,8,25.775,7.201c0-2.004-1.625-3.628-3.628-3.628
	c-0.484,0-0.946,0.096-1.369,0.268c-0.041-0.086-0.103-0.214-0.182-0.37C20.515,1.541,18.924,0,16.973,0
	c-1.246,0-2.344,0.628-2.998,1.584c-0.839-1.125-2.294-1.707-3.746-1.363C8.614,0.604,7.512,2.011,7.442,3.59
	C7.403,3.669,7.371,3.736,7.344,3.792C6.653,3.495,5.865,3.407,5.077,3.594C3.127,4.056,1.921,6.011,2.383,7.96
	c0.12,0.506,0.341,0.96,0.635,1.35c0.007,0.036,0.013,0.067,0.019,0.095C2.956,9.418,2.874,9.433,2.792,9.453
	c-1.95,0.461-3.156,2.417-2.694,4.367c0.342,1.445,1.506,2.481,2.879,2.733c-0.472,0.612-0.752,1.379-0.752,2.211
	c0,2.004,1.625,3.628,3.628,3.628c0.515,0,1.114-0.109,1.558-0.302c0.023,0.049,0.211,0.121,0.211,0.209c0,0.012,0,0.025,0,0.038
	c0,2.003,1.514,3.628,3.517,3.628c1.246,0,2.29-0.628,2.943-1.584c0.839,1.125,2.266,1.707,3.718,1.363
	c1.53-0.362,2.584-1.645,2.752-3.122c0.086-0.166,0.149-0.307,0.199-0.412c0.67,0.268,1.421,0.341,2.176,0.162
	c1.949-0.462,3.155-2.417,2.693-4.367c-0.101-0.426-0.275-0.816-0.503-1.162c-0.023-0.127-0.043-0.228-0.058-0.298
	C25.107,16.534,25.157,16.523,25.207,16.512z" />
</svg>
