<?xml version="1.0" encoding="utf-8"?>
<!-- Generator: Adobe Illustrator 16.0.0, SVG Export Plug-In . SVG Version: 6.00 Build 0)  -->
<!DOCTYPE svg PUBLIC "-//W3C//DTD SVG 1.1//EN" "http://www.w3.org/Graphics/SVG/1.1/DTD/svg11.dtd">
<svg version="1.1" id="Layer_1" xmlns="http://www.w3.org/2000/svg" xmlns:xlink="http://www.w3.org/1999/xlink" x="0px" y="0px"
	 width="13.865px" height="11.333px" viewBox="0 0 13.865 11.333" enable-background="new 0 0 13.865 11.333" xml:space="preserve">
<g>
	<path fill="#0D5E77" d="M6.59,1.862c-2.433,0-4.646,1.412-6.342,3.722C1.943,7.893,4.157,9.307,6.59,9.307s4.647-1.412,6.341-3.723
		C11.237,3.275,9.021,1.862,6.59,1.862z M6.959,6.899c-0.697,0-1.262-0.564-1.262-1.262c0-0.697,0.565-1.264,1.262-1.264
		c0.696,0,1.265,0.566,1.265,1.264C8.222,6.334,7.655,6.899,6.959,6.899z"/>
	<g>
		<path fill="#73B1CD" d="M7.164,1C4.732,1,2.518,2.412,0.822,4.721c1.694,2.311,3.91,3.723,6.342,3.723
			c2.433,0,4.647-1.412,6.34-3.723C11.812,2.413,9.595,1,7.164,1z M7.533,6.038c-0.696,0-1.262-0.565-1.262-1.263
			c0-0.698,0.566-1.263,1.262-1.263s1.264,0.565,1.264,1.263C8.797,5.473,8.229,6.038,7.533,6.038z"/>
	</g>
</g>
</svg>
