<?xml version="1.0" encoding="utf-8"?>
<!-- Generator: Adobe Illustrator 16.0.0, SVG Export Plug-In . SVG Version: 6.00 Build 0)  -->
<!DOCTYPE svg PUBLIC "-//W3C//DTD SVG 1.1//EN" "http://www.w3.org/Graphics/SVG/1.1/DTD/svg11.dtd">
<svg version="1.1" id="Layer_1" xmlns="http://www.w3.org/2000/svg" xmlns:xlink="http://www.w3.org/1999/xlink" x="0px" y="0px"
	 width="18.844px" height="15.594px" viewBox="0 0 18.844 15.594" enable-background="new 0 0 18.844 15.594" xml:space="preserve">
<g>
	<g>
		<path fill="#0D5E77" d="M7.019,4.686c-2.117,0-4.045,1.229-5.52,3.239c1.475,2.009,3.402,3.239,5.52,3.239s4.045-1.23,5.518-3.239
			C11.064,5.915,9.136,4.686,7.019,4.686z M7.342,9.071c-0.607,0-1.1-0.492-1.1-1.1c0-0.606,0.492-1.099,1.1-1.099
			c0.605,0,1.098,0.492,1.098,1.099C8.439,8.578,7.947,9.071,7.342,9.071z"/>
		<g>
			
				<rect x="5.724" y="0.035" transform="matrix(0.7071 0.7071 -0.7071 0.7071 7.7179 -2.5805)" fill="#0D5E77" width="2.5" height="15.983"/>
		</g>
		<g>
			
				<rect x="5.724" y="0.035" transform="matrix(0.7071 -0.7071 0.7071 0.7071 -3.6327 7.2821)" fill="#0D5E77" width="2.5" height="15.983"/>
		</g>
	</g>
	<g>
		<path fill="#73B0CC" d="M7.519,3.936c-2.117,0-4.045,1.229-5.52,3.239c1.475,2.009,3.402,3.239,5.52,3.239s4.045-1.23,5.518-3.239
			C11.564,5.165,9.636,3.936,7.519,3.936z M7.842,8.321c-0.607,0-1.1-0.492-1.1-1.1c0-0.606,0.492-1.099,1.1-1.099
			c0.605,0,1.098,0.492,1.098,1.099C8.939,7.828,8.447,8.321,7.842,8.321z"/>
		<g>
			
				<rect x="6.224" y="-0.715" transform="matrix(0.7071 0.7071 -0.7071 0.7071 7.334 -3.1537)" fill="#73B0CC" width="2.5" height="15.983"/>
		</g>
		<g>
			
				<rect x="6.224" y="-0.715" transform="matrix(0.7071 -0.7071 0.7071 0.7071 -2.9559 7.416)" fill="#73B0CC" width="2.5" height="15.983"/>
		</g>
	</g>
	<g>
		<path fill="#73B0CC" d="M7.519,3.936c-2.117,0-4.045,1.229-5.52,3.239c1.475,2.009,3.402,3.239,5.52,3.239s4.045-1.23,5.518-3.239
			C11.564,5.165,9.636,3.936,7.519,3.936z M7.842,8.321c-0.607,0-1.1-0.492-1.1-1.1c0-0.606,0.492-1.099,1.1-1.099
			c0.605,0,1.098,0.492,1.098,1.099C8.939,7.828,8.447,8.321,7.842,8.321z"/>
		<g>
			
				<rect x="6.224" y="-0.715" transform="matrix(0.7071 0.7071 -0.7071 0.7071 7.334 -3.1537)" fill="#73B1CD" width="2.5" height="15.983"/>
		</g>
		<g>
			
				<rect x="6.224" y="-0.715" transform="matrix(0.7071 -0.7071 0.7071 0.7071 -2.9559 7.416)" fill="#73B1CD" width="2.5" height="15.983"/>
		</g>
	</g>
</g>
</svg>
