<?xml version="1.0" encoding="utf-8"?>
<!-- Generator: Adobe Illustrator 17.1.0, SVG Export Plug-In . SVG Version: 6.00 Build 0)  -->
<!DOCTYPE svg PUBLIC "-//W3C//DTD SVG 1.1//EN" "http://www.w3.org/Graphics/SVG/1.1/DTD/svg11.dtd">
<svg version="1.1" id="Layer_1" xmlns="http://www.w3.org/2000/svg" xmlns:xlink="http://www.w3.org/1999/xlink" x="0px" y="0px"
	 viewBox="-25 0 150 100" enable-background="new -25 0 150 100" xml:space="preserve">
<g id="Layer_1_1_">
	<g>
		<ellipse fill="rgba(255,255,255,1)" cx="44.9" cy="21.3" rx="21.4" ry="21.3"/>
		<path fill="rgba(255,255,255,1)" d="M86.3,89.3H64.5c-2.3,0-4.1,3.1-4.1,5.4c0,2.2,1.8,5.3,4.1,5.3h21.8c2.3,0,4.1-3.1,4.1-5.3C90.3,92.4,88.5,89.3,86.3,89.3
			z"/>
		<path fill="rgba(255,255,255,1)" d="M109.2,62.1C109.2,62,109.2,62,109.2,62.1l15-35.4c1.5-3.5-0.2-7.4-3.6-8.9c-3.5-1.5-7.5,0.2-8.9,3.6L90,72.3
			c-1.5,3.5,0.2,7.4,3.6,8.9c0.9,0.4,1.8,0.5,2.7,0.5c2.6,0,5.2-1.6,6.3-4.1l2.5-5.9l7.7,17.5H99.9c-2.3,0-4.1,3.1-4.1,5.4
			c0,2.2,1.8,5.3,4.1,5.3h25.2L109.2,62.1z"/>
		<path fill="rgba(255,255,255,1)" d="M6,100c0-0.6,0-1.3,0-2c1.3-4.8,8.4-17.2,16.6-29.3c2.8,7.4,6.4,13.7,12.4,15.4c4.8,1.4,20.1,1.7,30.2,1.7
			c2.9,0,5.4,0,7,0c3.2,0,5.8-2.6,5.7-5.8c0-3.2-2.6-5.7-5.8-5.7c0,0,0,0-0.1,0c-13.9,0.2-30.7-0.2-33.7-1.1c-2.7-1-6.4-12.6-8-17.5
			c-0.2-0.7-0.4-1.3-0.6-2c0-4.7-2.2-9.4-6.4-12.4c-6.9-4.9-16.5-3.4-21.4,3.5C-22.9,79.1-25.4,93.4-24.8,100H6z"/>
	</g>
</g>
<g id="nyt_x5F_exporter_x5F_info" display="none">
</g>
</svg>
