<?xml version="1.0" encoding="utf-8"?>
<!-- Generator: Adobe Illustrator 17.1.0, SVG Export Plug-In . SVG Version: 6.00 Build 0)  -->
<!DOCTYPE svg PUBLIC "-//W3C//DTD SVG 1.1//EN" "http://www.w3.org/Graphics/SVG/1.1/DTD/svg11.dtd">
<svg version="1.1" id="Layer_1" xmlns="http://www.w3.org/2000/svg" xmlns:xlink="http://www.w3.org/1999/xlink" x="0px" y="0px"
	 viewBox="0 0 100 100" enable-background="new 0 0 100 100" xml:space="preserve">
<g id="Captions">
</g>
<g id="Your_Icon">
	<path fill="rgba(255,255,255,1)" d="M87.5,0.3C84,1,73.7,4.8,73.7,4.8s2.7,5.8,7.6,11.7c4.9,5.9,11.6,7.6,11.6,7.6s2.7-5.4,4.1-9.1c1.5-3.7,2.9-14.5,2.9-14.5
		S91.1-0.5,87.5,0.3z"/>
	<path fill="rgba(255,255,255,1)" d="M7.8,42.5c-3.1,5.8-3.6,14.4-3.6,14.4l3.2,3.3c0,0,2.6-12.5,11.4-18.2c8.8-5.7,15.8-4.3,15.8-4.3s-2.9,3.3-3.8,5.4
		c-0.8,2.1-0.6,5.7-0.6,5.7L19.9,53c0,0,0.1,6.8,5.8,12.4c5.7,5.6,12.3,8,12.3,8l7-10.6c0,0,6.7-0.4,8.4-1.2c1.7-0.8,1.9-1,1.9-1
		s-0.7,11.9-9.8,18.1c-9,6.2-12.8,7.1-12.8,7.1l2.8,3.3c0,0,16.1-1.8,24.3-10.4c8.2-8.6,10.1-24.5,10.1-24.5s7.7-5,14.5-14.7
		c6.8-9.7,7.7-13.2,7.7-13.2s-5.6-0.2-12.5-7.5S71.8,6.2,71.8,6.2s-8.9,3.4-15.7,8.3C49.4,19.3,42.6,26,42.6,26S32,20.9,25.3,24.7
		C18.6,28.5,10.8,36.7,7.8,42.5z M46.8,37.6c2.8-2.5,7.2-2.3,9.7,0.4c2.6,2.7,2.4,6.9-0.4,9.3c-2.8,2.5-7.2,2.3-9.7-0.4
		C43.8,44.2,44,40,46.8,37.6z M63.6,22.9c2.8-2.5,7.2-2.3,9.7,0.4c2.6,2.7,2.4,6.9-0.4,9.3c-2.8,2.5-7.2,2.3-9.7-0.4
		C60.6,29.5,60.8,25.3,63.6,22.9z"/>
	<path fill="rgba(255,255,255,1)" d="M8.8,69.6c-3.3,4.2-3.8,10-3.8,10S3,86.7,1,93.9c-2,7.2-0.4,5.8-0.4,5.8s-0.1,1.5,1.7-2.8S9,88.6,9,88.6l-1.9,5.7
		c0,0,1.6-1.4,3.3-4.2c1.7-2.8,10.8-2.2,15.7-6.3c4.9-4.1,5.3-9.9,5.3-9.9s-2.9-1.7-7.3-4.9C19.8,65.9,20,63,20,63
		S12.2,65.4,8.8,69.6z"/>
</g>
</svg>
