<svg xmlns="http://www.w3.org/2000/svg" xmlns:xlink="http://www.w3.org/1999/xlink" version="1.1" id="Layer_1" x="0px" y="0px" width="100px" height="100px" viewBox="0 0 100 100" enable-background="new 0 0 100 100" xml:space="preserve">
<g id="Captions">
</g>
<g>
	<g>
		<path fill="rgba(255,255,255,1)" d="M50,10c10.684,0,20.729,4.161,28.284,11.716C85.84,29.271,90,39.315,90,50s-4.16,20.729-11.716,28.284    C70.729,85.839,60.684,90,50,90c-10.685,0-20.729-4.161-28.285-11.716C14.161,70.729,10,60.685,10,50s4.161-20.729,11.715-28.284    C29.271,14.161,39.315,10,50,10 M50,0C22.386,0,0,22.386,0,50s22.386,50,50,50s50-22.386,50-50S77.614,0,50,0L50,0z"/>
	</g>
	<g>
		<polygon fill="rgba(255,255,255,1)" points="66.465,73.535 45,52.071 45,30 55,30 55,47.929 73.535,66.464   "/>
	</g>
</g>
</svg>