<?xml version="1.0" encoding="utf-8"?>
<!DOCTYPE svg PUBLIC "-//W3C//DTD SVG 1.1//EN" "http://www.w3.org/Graphics/SVG/1.1/DTD/svg11.dtd">
<svg version="1.1" id="Layer_1" xmlns="http://www.w3.org/2000/svg" xmlns:xlink="http://www.w3.org/1999/xlink" x="0px" y="0px"
	 width="16.812px" height="10.938px" viewBox="0 0 16.812 10.938" enable-background="new 0 0 16.812 10.938" xml:space="preserve">
<g>
	<g>
		<path fill="#0D5E77" d="M8.406,4.719V3.146c0-1.321-1.121-2.396-2.5-2.396c-1.355,0-2.5,1.129-2.5,2.466v1.503h-1v6h7v-6H8.406z
			 M4.406,3.216c0-0.781,0.701-1.466,1.5-1.466c0.812,0,1.5,0.639,1.5,1.396v1.573h-3V3.216z"/>
	</g>
	<g>
		<path fill="#73B0CC" d="M8.906,3.969V2.396C8.906,1.075,7.785,0,6.406,0c-1.355,0-2.5,1.129-2.5,2.466v1.503h-1v6h7v-6H8.906z
			 M4.906,2.466C4.906,1.685,5.607,1,6.406,1c0.812,0,1.5,0.639,1.5,1.396v1.573h-3V2.466z"/>
	</g>
	<g>
		<path fill="#73B1CD" d="M8.906,3.969V2.396C8.906,1.075,7.785,0,6.406,0c-1.355,0-2.5,1.129-2.5,2.466v1.503h-1v6h7v-6H8.906z
			 M4.906,2.466C4.906,1.685,5.607,1,6.406,1c0.812,0,1.5,0.639,1.5,1.396v1.573h-3V2.466z"/>
	</g>
</g>
</svg>
