<svg xmlns="http://www.w3.org/2000/svg" xmlns:xlink="http://www.w3.org/1999/xlink"
	 width="100%" height="100%" viewBox="0 0 456 134">
  <title>W3C 20th Anniversary Logo</title>
  <style type="text/css"><![CDATA[
     .w3c_light {
       fill: #0067B1;
     }

     .w3c_dark {
       fill: #010101;
     }

     .lighter {
       fill: #00A4E4;
     }

     .darker {
       fill: #06357A;
     }

     .darkest, #divider {
       fill: #000000;
     }

  ]]></style>

  <g id="Logo">

  	<g id="W3C_logo">
  		<path class="w3c_light" d="M57.389,1.619l19.579,66.569L96.548,1.619h14.178h38.91v6.616l-19.985,34.433
  			c7.02,2.254,12.334,6.351,15.934,12.293s5.402,12.917,5.402,20.926c0,9.909-2.636,18.234-7.898,24.987
  			c-5.271,6.75-12.087,10.122-20.461,10.122c-6.301,0-11.793-2.004-16.473-6.01c-4.683-4.002-8.147-9.427-10.398-16.269
  			l11.072-4.592c1.621,4.145,3.761,7.407,6.417,9.792c2.657,2.384,5.784,3.575,9.383,3.575c3.779,0,6.977-2.114,9.59-6.344
  			c2.611-4.229,3.917-9.316,3.917-15.262c0-6.569-1.398-11.658-4.186-15.259c-3.245-4.228-8.332-6.347-15.262-6.347h-5.401V47.8
  			l18.905-32.679h-22.822l-1.297,2.213l-27.755,93.661h-1.349L56.712,43.208l-20.254,67.787h-1.35L2.699,1.619h14.178l19.582,66.569
  			L49.691,23.36L43.21,1.619H57.389L57.389,1.619z"/>
  		<path fill-rule="evenodd" clip-rule="evenodd" class="w3c_dark" d="M223.205,7.33c2.067,0,3.016,0.575,3.016,2.009
  			c0,1.379-0.949,1.867-2.96,1.867h-1.869V7.33H223.205L223.205,7.33z M223.605,5.896h-4.417v11.71h2.204v-4.993h2.188l2.385,4.993
  			h2.466l-2.612-5.336c1.692-0.347,2.67-1.495,2.67-3.159C228.489,6.984,226.879,5.896,223.605,5.896L223.605,5.896z M232.306,12.04
  			c0,2.38-0.92,4.592-2.614,6.228c-1.779,1.722-3.991,2.642-6.432,2.642c-2.294,0-4.561-0.947-6.256-2.67
  			c-1.694-1.725-2.641-3.935-2.641-6.289c0-2.353,0.979-4.65,2.729-6.429c1.633-1.665,3.845-2.553,6.256-2.553
  			c2.471,0,4.681,0.919,6.399,2.669C231.415,7.3,232.306,9.543,232.306,12.04L232.306,12.04z M223.321,1.619
  			c-2.781,0-5.283,1.004-7.18,2.927c-2.004,2.037-3.128,4.68-3.128,7.404c0,2.729,1.065,5.254,3.017,7.236
  			c1.979,2.009,4.535,3.1,7.291,3.1c2.696,0,5.309-1.09,7.35-3.072c1.949-1.893,3.015-4.42,3.015-7.264
  			c0-2.754-1.095-5.338-2.987-7.26C228.714,2.681,226.133,1.619,223.321,1.619L223.321,1.619z M205.936,1l-8.008,15.968
  			c0,0-3.44-6.347-6.839-9.252c-3.235-2.764-7.425-5.321-12.727-4.771c-5.125,0.529-10.902,5.037-14.79,12.55
  			c-4.417,8.544-5.916,17.202-5.947,26.749c-0.045,13.377,4.89,22.506,4.89,22.506s-1.133-4.242-0.944-11.429
  			c0.122-4.483,0.149-9.361,3.533-19.443c2.834-8.424,9.312-15.258,15.026-16.438c4.453-0.917,7.298-0.25,11.669,2.829
  			c5.183,3.654,8.306,10.252,8.306,10.252l8.128-15.555L205.936,1L205.936,1z M206.938,80.01c0,0-3.593,6.423-5.835,8.896
  			c-2.235,2.473-6.245,6.835-11.192,9.017c-4.948,2.18-7.54,2.591-12.432,2.121c-4.887-0.473-9.427-3.301-11.017-4.48
  			c-1.595-1.18-5.657-4.655-7.955-7.893c-2.298-3.241-5.894-9.722-5.894-9.722s2.004,6.496,3.256,9.252
  			c0.721,1.587,2.939,6.438,6.085,10.661c2.936,3.94,8.631,10.724,17.291,12.259c8.659,1.529,14.614-2.361,16.084-3.302
  			c1.472-0.942,4.576-3.538,6.54-5.643c2.053-2.192,3.991-4.99,5.068-6.673c0.782-1.224,2.064-3.711,2.064-3.711L206.938,80.01
  			L206.938,80.01z"/>
  	</g>

  	<rect id="divider" x="258.623" y="1.619" width="5" height="108.501"/>

  	<g id="20th_Anniversary_logo">
  		<path id="Anniversary_1_" class="w3c_light" d="M355.571,132.277l-0.428-2.638h-2.681l-0.428,2.638h-2.768l2.981-14.303h3.108
  			l2.98,14.303H355.571z M353.813,120.999l-1.029,6.261h2.037L353.813,120.999z M365.392,132.277l-2.916-8.19v8.19h-2.701v-14.303
  			h2.701l2.744,7.911v-7.911h2.701v14.303H365.392z M376.187,132.277l-2.916-8.19v8.19h-2.703v-14.303h2.703l2.745,7.911v-7.911
  			h2.701v14.303H376.187z M381.266,132.277v-14.303h2.702v14.303H381.266z M388.625,132.277l-2.98-14.303h2.766l1.779,10.828
  			l1.758-10.828h2.768l-2.981,14.303H388.625z M396.468,132.277v-14.303h6.262v2.38h-3.56v3.452h3.409v2.381h-3.409v3.709h3.56
  			v2.381H396.468z M410.302,132.277l-1.545-5.254h-0.878v5.254h-2.702v-14.303h3.988c2.273,0,3.902,1.823,3.902,4.438
  			c0,2.423-1.029,3.517-1.844,3.967l1.973,5.897H410.302z M410.302,122.499c0-1.286-0.537-2.145-1.564-2.145h-0.858v4.288h0.858
  			C409.765,124.642,410.302,123.786,410.302,122.499z M414.437,131.118l1.158-2.122c0.601,0.75,1.523,1.136,2.358,1.136
  			c0.859,0,1.438-0.643,1.438-1.564c0-2.531-4.547-2.509-4.547-6.84c0-2.144,1.459-3.988,3.969-3.988
  			c1.221,0,2.337,0.407,3.108,1.156l-1.029,2.08c-0.558-0.579-1.223-0.836-1.974-0.836c-0.771,0-1.329,0.58-1.329,1.438
  			c0,2.229,4.546,2.53,4.546,6.819c0,2.401-1.587,4.138-4.01,4.138C416.56,132.534,415.359,132.041,414.437,131.118z
  			 M429.182,132.277l-0.428-2.638h-2.681l-0.429,2.638h-2.767l2.981-14.303h3.108l2.98,14.303H429.182z M427.424,120.999
  			l-1.029,6.261h2.037L427.424,120.999z M438.548,132.277l-1.544-5.254h-0.879v5.254h-2.701v-14.303h3.987
  			c2.273,0,3.902,1.823,3.902,4.438c0,2.423-1.028,3.517-1.845,3.967l1.974,5.897H438.548z M438.548,122.499
  			c0-1.286-0.537-2.145-1.565-2.145h-0.857v4.288h0.857C438.011,124.642,438.548,123.786,438.548,122.499z M445.354,132.277v-5.919
  			l-3.345-8.384h2.872l1.822,5.769l1.845-5.769h2.853l-3.345,8.384v5.919H445.354z"/>
  		<path class="lighter" d="M407.697,95.866L407.697,95.866L407.697,95.866L407.697,95.866z M411.516,105.815l5.795-19.387
  			c-0.184,0.107-0.376,0.197-0.562,0.301c0.002-0.001,0.005-0.002,0.007-0.004l-6.658,16.305l1.842,5.496
  			c1.477-0.349,2.929-0.756,4.355-1.223l-0.027-0.162l-0.023,0.078L411.516,105.815z M424.291,103.947
  			c0.667-0.345,1.317-0.713,1.968-1.084l1.689-17.622L424.291,103.947z M417.344,103.538l1.339,2.923
  			c0.034-0.013,0.066-0.028,0.101-0.042l4.363-22.303L417.344,103.538z M437.798,94.088c0.256-0.255,0.497-0.525,0.747-0.786
  			l-0.771-7.519L437.798,94.088z M431.541,99.433c0.447-0.329,0.902-0.647,1.339-0.989l-0.034-12.64L431.541,99.433z
  			 M407.697,95.866L407.697,95.866L407.697,95.866l2.578-6.31c-0.427,0.136-0.864,0.246-1.298,0.366l-5.627,10.665l1.463,9.123
  			c1.672-0.164,3.32-0.405,4.945-0.718l-0.64-4.072l-4.393-1.782L407.697,95.866z M442.667,85.177l0.299,2.917
  			c0.079-0.105,0.158-0.209,0.236-0.315L442.667,85.177z M391.968,95.794l3.202-4.843c-0.756-0.096-1.506-0.211-2.247-0.355
  			c0.001,0,0.001,0,0.001,0l-2.984,3.666l-2.543-2.06l-4.059,15.134c1.554,0.518,3.14,0.957,4.747,1.328L392.284,93l-2.005,16.12
  			c1.607,0.298,3.234,0.526,4.884,0.669l1.513-12.173l-0.587,0.889L391.968,95.794z M387.737,89.154
  			c-0.813-0.294-1.616-0.614-2.402-0.965c0.003,0.001,0.006,0.002,0.009,0.004l-1.173,1.177l-3.504-3.473l0.142-0.142
  			c0.002,0.001,0.004,0.002,0.006,0.003c-8.604-5.438-14.843-14.43-16.562-24.698c-1.389,1.697-6.135,6.002-10.087,9.49
  			l10.085-2.521l-13.658,5.646c-0.625,0.541-1.16,1-1.544,1.327c0.543,1.324,1.142,2.626,1.785,3.906l15.936-6.583l-14.891,8.555
  			c0.796,1.438,1.655,2.84,2.573,4.207l14.411-8.283l-13.188,10.035c0.967,1.328,1.989,2.617,3.065,3.861l12.843-9.774
  			l-11.459,11.316c1.119,1.203,2.289,2.359,3.507,3.464l11.211-11.073l-9.68,12.415c1.254,1.061,2.553,2.071,3.896,3.021
  			l9.545-12.245l-7.866,13.388c1.374,0.9,2.79,1.736,4.24,2.513l7.834-13.335l-5.999,14.272c1.475,0.719,2.98,1.38,4.521,1.963
  			l6.062-14.425l-1.287-1.042L387.737,89.154z M398.192,99.792l4.606-8.728c-0.618,0.058-1.242,0.089-1.868,0.114l-3.577,5.413
  			l0.214,13.347c0.642,0.024,1.286,0.04,1.933,0.04c1.054,0,2.098-0.041,3.137-0.101l-0.073-7.798l-0.003,0.006L398.192,99.792z"/>
  		<path class="darker" d="M400.931,91.178l-3.577,5.413l-0.678,1.025l-0.587,0.889l-4.121-2.71l3.202-4.843l0,0
  			c0.653,0.083,1.312,0.145,1.976,0.192c0.098,0.007,0.194,0.015,0.292,0.021c0.683,0.043,1.37,0.069,2.062,0.069
  			C399.981,91.233,400.454,91.197,400.931,91.178L400.931,91.178z M408.978,89.921c-0.929,0.258-1.873,0.477-2.829,0.661
  			c-0.104,0.02-0.208,0.042-0.312,0.061c-0.999,0.183-2.011,0.326-3.037,0.421l0,0l-4.606,8.728l4.368,2.293l0.003-0.006
  			l0.787-1.492L408.978,89.921L408.978,89.921z M443.202,87.779l0.004,0.021c0.1-0.135,0.19-0.276,0.288-0.412
  			c0.29-0.401,0.573-0.807,0.852-1.216c0.274-0.403,0.541-0.812,0.806-1.222c0.263-0.41,0.527-0.819,0.78-1.236
  			c0.305-0.503,0.594-1.017,0.882-1.531c0.284-0.506,0.563-1.014,0.832-1.53c0.336-0.646,0.665-1.296,0.976-1.957
  			c0.167-0.355,0.321-0.717,0.48-1.076c0.252-0.567,0.497-1.139,0.729-1.716c0.146-0.36,0.286-0.723,0.424-1.087
  			c0.237-0.627,0.46-1.262,0.674-1.9c0.105-0.313,0.215-0.625,0.314-0.94c0.302-0.958,0.584-1.924,0.833-2.904h-19.689
  			c-0.353,0.866-0.744,1.713-1.161,2.544c-0.138,0.273-0.292,0.535-0.437,0.804c-0.295,0.551-0.593,1.099-0.916,1.632
  			c-0.186,0.307-0.385,0.603-0.58,0.904c-0.31,0.479-0.624,0.954-0.956,1.417c-0.218,0.304-0.444,0.6-0.672,0.896
  			c-0.339,0.442-0.686,0.877-1.044,1.303c-0.241,0.286-0.485,0.568-0.735,0.846c-0.376,0.418-0.763,0.826-1.158,1.227
  			c-0.255,0.258-0.508,0.516-0.771,0.767c-0.428,0.407-0.87,0.798-1.317,1.185c-0.251,0.217-0.497,0.439-0.754,0.649
  			c-0.521,0.425-1.062,0.828-1.607,1.224c-0.202,0.147-0.396,0.303-0.601,0.446c-0.769,0.533-1.557,1.041-2.367,1.514v0
  			l-5.795,19.387l4.729,1.404l0.023-0.078l1.076-3.604l5.803-19.422l-4.363,22.303l-0.001,0.005
  			c0.979-0.373,1.941-0.776,2.892-1.203c0.143-0.064,0.279-0.138,0.421-0.203c0.738-0.339,1.474-0.684,2.193-1.055l0.003-0.016
  			l3.657-18.706l-1.689,17.622l-0.003,0.031c0.228-0.13,0.445-0.274,0.67-0.407c0.4-0.236,0.796-0.479,1.189-0.724
  			c0.523-0.326,1.041-0.659,1.553-1.003c0.362-0.243,0.721-0.491,1.077-0.743c0.262-0.186,0.533-0.357,0.792-0.547l0.004-0.037
  			l1.305-13.629l0.034,12.64v0.01c0.81-0.634,1.596-1.294,2.366-1.972c0.02-0.017,0.04-0.032,0.06-0.049
  			c0.567-0.501,1.112-1.026,1.659-1.55c0.244-0.234,0.5-0.458,0.74-0.696c0.03-0.03,0.062-0.058,0.093-0.087v-0.01l-0.023-8.305
  			l0.771,7.519l0.003,0.025c0.172-0.178,0.328-0.37,0.498-0.55c0.489-0.523,0.972-1.053,1.44-1.594
  			c0.249-0.288,0.494-0.58,0.737-0.874c0.48-0.579,0.949-1.166,1.406-1.765c0.109-0.145,0.23-0.28,0.339-0.426l-0.003-0.024
  			l-0.299-2.917L443.202,87.779z M416.749,86.729c-0.847,0.473-1.719,0.907-2.604,1.313c-0.303,0.139-0.607,0.275-0.914,0.406
  			c-0.328,0.139-0.658,0.275-0.992,0.405c-0.642,0.25-1.29,0.486-1.95,0.698c-0.004,0.001-0.009,0.003-0.013,0.004l0,0l-2.578,6.31
  			l0,0l-2.971,7.271l4.393,1.782l0.178,0.072l0.801-1.962l6.658-16.305C416.754,86.727,416.751,86.728,416.749,86.729z
  			 M392.924,90.596C392.924,90.596,392.924,90.596,392.924,90.596c-0.884-0.172-1.756-0.38-2.615-0.619
  			c-0.008-0.002-0.015-0.004-0.021-0.006c-0.862-0.241-1.713-0.514-2.55-0.817l0,0l-1.631,2.003l1.287,1.042l0.003,0.002l2.543,2.06
  			L392.924,90.596z M380.667,85.897l3.504,3.473l1.173-1.177c-0.003-0.001-0.006-0.003-0.009-0.004
  			c-1.567-0.702-3.076-1.518-4.521-2.431c-0.002-0.001-0.004-0.002-0.006-0.003L380.667,85.897z"/>
  		<g id="_x32_0th">
  			<path class="darkest" d="M451.943,46.539h-19.164c-4.063-15.126-17.89-26.296-34.279-26.296   c-13.861,0-28.238,9.215-33.167,23.745
  				c-1.583,4.667-3.399,8.042-5.466,10.887c-2.27,3.128-5.143,6.279-8.623,9.456c-3.479,3.177-27.87,26.482-27.87,26.482h46.475
  				v12.122l-4.686,7.185H289.75V95.468c0,0,40.764-36.872,43.003-39.599c4.256-5.183,12.581-11.214,12.914-18.214
  				c0.473-9.934-6-17.412-16.834-17.412c-12.165,0-20.65,10.015-24.785,15.359l-13.162-11.287
  				c2.519-3.529,13.119-22.697,38.614-22.697c20.681,0,30.711,12.459,32.048,14.47c9.69-9.043,22.682-14.59,36.952-14.59
  				C425.271,1.499,447.559,21,451.943,46.539z M438.285,63.167v-7.755h2.79v-2.25H432.9v2.25h2.805v7.755H438.285z M451.992,63.167
  				V53.163h-2.58v3.735h-4.155v-3.735h-2.579v10.004h2.579v-4.02h4.155v4.02H451.992z"/>
  		</g>
  	</g>
  </g>
</svg>
